G04 #@! TF.GenerationSoftware,KiCad,Pcbnew,(5.1.6)-1*
G04 #@! TF.CreationDate,2020-11-04T19:04:27-08:00*
G04 #@! TF.ProjectId,Four Channel MHz LED Driver,466f7572-2043-4686-916e-6e656c204d48,rev?*
G04 #@! TF.SameCoordinates,Original*
G04 #@! TF.FileFunction,Soldermask,Top*
G04 #@! TF.FilePolarity,Negative*
%FSLAX46Y46*%
G04 Gerber Fmt 4.6, Leading zero omitted, Abs format (unit mm)*
G04 Created by KiCad (PCBNEW (5.1.6)-1) date 2020-11-04 19:04:27*
%MOMM*%
%LPD*%
G01*
G04 APERTURE LIST*
%ADD10C,0.010000*%
%ADD11C,0.100000*%
%ADD12R,0.800000X0.740000*%
%ADD13R,0.800000X0.600000*%
%ADD14R,0.740000X0.800000*%
%ADD15R,0.600000X0.800000*%
%ADD16R,2.100000X2.100000*%
%ADD17C,1.900000*%
%ADD18C,1.700000*%
%ADD19C,4.720000*%
%ADD20R,0.550000X0.900000*%
%ADD21C,8.100000*%
%ADD22R,1.100000X2.610000*%
%ADD23C,1.290000*%
%ADD24R,1.600000X2.600000*%
%ADD25R,0.380000X1.570000*%
%ADD26R,1.000000X2.270000*%
%ADD27R,2.610000X1.100000*%
%ADD28R,3.100000X2.100000*%
%ADD29R,8.300000X8.100000*%
%ADD30R,0.510000X1.670000*%
%ADD31R,2.270000X1.000000*%
%ADD32R,2.055800X2.259000*%
%ADD33R,0.700000X0.550000*%
%ADD34R,2.700000X2.900000*%
%ADD35R,0.354000X0.785800*%
%ADD36R,1.370000X1.649400*%
%ADD37R,2.106600X1.649400*%
%ADD38C,1.300000*%
%ADD39R,1.471600X0.582600*%
%ADD40R,2.513000X3.300400*%
%ADD41R,1.320000X0.750000*%
%ADD42R,9.500000X10.900000*%
%ADD43R,4.700000X1.200000*%
%ADD44C,2.790000*%
%ADD45R,6.320000X3.280000*%
%ADD46R,0.660000X2.640000*%
%ADD47R,0.750000X0.500000*%
%ADD48R,3.600000X1.600000*%
%ADD49R,5.100000X10.100000*%
%ADD50R,10.100000X5.100000*%
G04 APERTURE END LIST*
D10*
G36*
X73749000Y-61183000D02*
G01*
X74871000Y-61183000D01*
X74871000Y-63190000D01*
X73749000Y-63190000D01*
X73749000Y-61183000D01*
G37*
X73749000Y-61183000D02*
X74871000Y-61183000D01*
X74871000Y-63190000D01*
X73749000Y-63190000D01*
X73749000Y-61183000D01*
G36*
X76289000Y-57627000D02*
G01*
X77411000Y-57627000D01*
X77411000Y-59634000D01*
X76289000Y-59634000D01*
X76289000Y-57627000D01*
G37*
X76289000Y-57627000D02*
X77411000Y-57627000D01*
X77411000Y-59634000D01*
X76289000Y-59634000D01*
X76289000Y-57627000D01*
G36*
X78829000Y-61183000D02*
G01*
X79951000Y-61183000D01*
X79951000Y-63190000D01*
X78829000Y-63190000D01*
X78829000Y-61183000D01*
G37*
X78829000Y-61183000D02*
X79951000Y-61183000D01*
X79951000Y-63190000D01*
X78829000Y-63190000D01*
X78829000Y-61183000D01*
G36*
X81369000Y-57627000D02*
G01*
X82491000Y-57627000D01*
X82491000Y-59634000D01*
X81369000Y-59634000D01*
X81369000Y-57627000D01*
G37*
X81369000Y-57627000D02*
X82491000Y-57627000D01*
X82491000Y-59634000D01*
X81369000Y-59634000D01*
X81369000Y-57627000D01*
G36*
X83909000Y-61183000D02*
G01*
X85031000Y-61183000D01*
X85031000Y-63190000D01*
X83909000Y-63190000D01*
X83909000Y-61183000D01*
G37*
X83909000Y-61183000D02*
X85031000Y-61183000D01*
X85031000Y-63190000D01*
X83909000Y-63190000D01*
X83909000Y-61183000D01*
G36*
X86449000Y-57627000D02*
G01*
X87571000Y-57627000D01*
X87571000Y-59634000D01*
X86449000Y-59634000D01*
X86449000Y-57627000D01*
G37*
X86449000Y-57627000D02*
X87571000Y-57627000D01*
X87571000Y-59634000D01*
X86449000Y-59634000D01*
X86449000Y-57627000D01*
G36*
X88989000Y-61183000D02*
G01*
X90111000Y-61183000D01*
X90111000Y-63190000D01*
X88989000Y-63190000D01*
X88989000Y-61183000D01*
G37*
X88989000Y-61183000D02*
X90111000Y-61183000D01*
X90111000Y-63190000D01*
X88989000Y-63190000D01*
X88989000Y-61183000D01*
G36*
X91529000Y-57627000D02*
G01*
X92651000Y-57627000D01*
X92651000Y-59634000D01*
X91529000Y-59634000D01*
X91529000Y-57627000D01*
G37*
X91529000Y-57627000D02*
X92651000Y-57627000D01*
X92651000Y-59634000D01*
X91529000Y-59634000D01*
X91529000Y-57627000D01*
G36*
X94069000Y-61183000D02*
G01*
X95191000Y-61183000D01*
X95191000Y-63190000D01*
X94069000Y-63190000D01*
X94069000Y-61183000D01*
G37*
X94069000Y-61183000D02*
X95191000Y-61183000D01*
X95191000Y-63190000D01*
X94069000Y-63190000D01*
X94069000Y-61183000D01*
G36*
X96609000Y-57627000D02*
G01*
X97731000Y-57627000D01*
X97731000Y-59634000D01*
X96609000Y-59634000D01*
X96609000Y-57627000D01*
G37*
X96609000Y-57627000D02*
X97731000Y-57627000D01*
X97731000Y-59634000D01*
X96609000Y-59634000D01*
X96609000Y-57627000D01*
G36*
X99149000Y-61183000D02*
G01*
X100271000Y-61183000D01*
X100271000Y-63190000D01*
X99149000Y-63190000D01*
X99149000Y-61183000D01*
G37*
X99149000Y-61183000D02*
X100271000Y-61183000D01*
X100271000Y-63190000D01*
X99149000Y-63190000D01*
X99149000Y-61183000D01*
G36*
X101689000Y-57627000D02*
G01*
X102811000Y-57627000D01*
X102811000Y-59634000D01*
X101689000Y-59634000D01*
X101689000Y-57627000D01*
G37*
X101689000Y-57627000D02*
X102811000Y-57627000D01*
X102811000Y-59634000D01*
X101689000Y-59634000D01*
X101689000Y-57627000D01*
G36*
X104229000Y-61183000D02*
G01*
X105351000Y-61183000D01*
X105351000Y-63190000D01*
X104229000Y-63190000D01*
X104229000Y-61183000D01*
G37*
X104229000Y-61183000D02*
X105351000Y-61183000D01*
X105351000Y-63190000D01*
X104229000Y-63190000D01*
X104229000Y-61183000D01*
G36*
X106769000Y-57627000D02*
G01*
X107891000Y-57627000D01*
X107891000Y-59634000D01*
X106769000Y-59634000D01*
X106769000Y-57627000D01*
G37*
X106769000Y-57627000D02*
X107891000Y-57627000D01*
X107891000Y-59634000D01*
X106769000Y-59634000D01*
X106769000Y-57627000D01*
G36*
X109309000Y-61183000D02*
G01*
X110431000Y-61183000D01*
X110431000Y-63190000D01*
X109309000Y-63190000D01*
X109309000Y-61183000D01*
G37*
X109309000Y-61183000D02*
X110431000Y-61183000D01*
X110431000Y-63190000D01*
X109309000Y-63190000D01*
X109309000Y-61183000D01*
G36*
X111849000Y-57627000D02*
G01*
X112971000Y-57627000D01*
X112971000Y-59634000D01*
X111849000Y-59634000D01*
X111849000Y-57627000D01*
G37*
X111849000Y-57627000D02*
X112971000Y-57627000D01*
X112971000Y-59634000D01*
X111849000Y-59634000D01*
X111849000Y-57627000D01*
G36*
X114389000Y-61183000D02*
G01*
X115511000Y-61183000D01*
X115511000Y-63190000D01*
X114389000Y-63190000D01*
X114389000Y-61183000D01*
G37*
X114389000Y-61183000D02*
X115511000Y-61183000D01*
X115511000Y-63190000D01*
X114389000Y-63190000D01*
X114389000Y-61183000D01*
G36*
X116929000Y-57627000D02*
G01*
X118051000Y-57627000D01*
X118051000Y-59634000D01*
X116929000Y-59634000D01*
X116929000Y-57627000D01*
G37*
X116929000Y-57627000D02*
X118051000Y-57627000D01*
X118051000Y-59634000D01*
X116929000Y-59634000D01*
X116929000Y-57627000D01*
G36*
X119469000Y-61183000D02*
G01*
X120591000Y-61183000D01*
X120591000Y-63190000D01*
X119469000Y-63190000D01*
X119469000Y-61183000D01*
G37*
X119469000Y-61183000D02*
X120591000Y-61183000D01*
X120591000Y-63190000D01*
X119469000Y-63190000D01*
X119469000Y-61183000D01*
G36*
X122009000Y-57627000D02*
G01*
X123131000Y-57627000D01*
X123131000Y-59634000D01*
X122009000Y-59634000D01*
X122009000Y-57627000D01*
G37*
X122009000Y-57627000D02*
X123131000Y-57627000D01*
X123131000Y-59634000D01*
X122009000Y-59634000D01*
X122009000Y-57627000D01*
G36*
X124549000Y-61183000D02*
G01*
X125671000Y-61183000D01*
X125671000Y-63190000D01*
X124549000Y-63190000D01*
X124549000Y-61183000D01*
G37*
X124549000Y-61183000D02*
X125671000Y-61183000D01*
X125671000Y-63190000D01*
X124549000Y-63190000D01*
X124549000Y-61183000D01*
G36*
X127089000Y-57627000D02*
G01*
X128211000Y-57627000D01*
X128211000Y-59634000D01*
X127089000Y-59634000D01*
X127089000Y-57627000D01*
G37*
X127089000Y-57627000D02*
X128211000Y-57627000D01*
X128211000Y-59634000D01*
X127089000Y-59634000D01*
X127089000Y-57627000D01*
G36*
X129629000Y-61183000D02*
G01*
X130751000Y-61183000D01*
X130751000Y-63190000D01*
X129629000Y-63190000D01*
X129629000Y-61183000D01*
G37*
X129629000Y-61183000D02*
X130751000Y-61183000D01*
X130751000Y-63190000D01*
X129629000Y-63190000D01*
X129629000Y-61183000D01*
G36*
X132169000Y-57627000D02*
G01*
X133291000Y-57627000D01*
X133291000Y-59634000D01*
X132169000Y-59634000D01*
X132169000Y-57627000D01*
G37*
X132169000Y-57627000D02*
X133291000Y-57627000D01*
X133291000Y-59634000D01*
X132169000Y-59634000D01*
X132169000Y-57627000D01*
D11*
X132106000Y-60408000D02*
G75*
G03*
X132106000Y-60408000I-646000J0D01*
G01*
X76226000Y-60408000D02*
G75*
G03*
X76226000Y-60408000I-646000J0D01*
G01*
D10*
G36*
X86449000Y-42387000D02*
G01*
X87571000Y-42387000D01*
X87571000Y-44394000D01*
X86449000Y-44394000D01*
X86449000Y-42387000D01*
G37*
X86449000Y-42387000D02*
X87571000Y-42387000D01*
X87571000Y-44394000D01*
X86449000Y-44394000D01*
X86449000Y-42387000D01*
G36*
X83909000Y-45943000D02*
G01*
X85031000Y-45943000D01*
X85031000Y-47950000D01*
X83909000Y-47950000D01*
X83909000Y-45943000D01*
G37*
X83909000Y-45943000D02*
X85031000Y-45943000D01*
X85031000Y-47950000D01*
X83909000Y-47950000D01*
X83909000Y-45943000D01*
G36*
X76289000Y-42387000D02*
G01*
X77411000Y-42387000D01*
X77411000Y-44394000D01*
X76289000Y-44394000D01*
X76289000Y-42387000D01*
G37*
X76289000Y-42387000D02*
X77411000Y-42387000D01*
X77411000Y-44394000D01*
X76289000Y-44394000D01*
X76289000Y-42387000D01*
G36*
X88989000Y-45943000D02*
G01*
X90111000Y-45943000D01*
X90111000Y-47950000D01*
X88989000Y-47950000D01*
X88989000Y-45943000D01*
G37*
X88989000Y-45943000D02*
X90111000Y-45943000D01*
X90111000Y-47950000D01*
X88989000Y-47950000D01*
X88989000Y-45943000D01*
G36*
X73749000Y-45943000D02*
G01*
X74871000Y-45943000D01*
X74871000Y-47950000D01*
X73749000Y-47950000D01*
X73749000Y-45943000D01*
G37*
X73749000Y-45943000D02*
X74871000Y-45943000D01*
X74871000Y-47950000D01*
X73749000Y-47950000D01*
X73749000Y-45943000D01*
G36*
X78829000Y-45943000D02*
G01*
X79951000Y-45943000D01*
X79951000Y-47950000D01*
X78829000Y-47950000D01*
X78829000Y-45943000D01*
G37*
X78829000Y-45943000D02*
X79951000Y-45943000D01*
X79951000Y-47950000D01*
X78829000Y-47950000D01*
X78829000Y-45943000D01*
G36*
X81369000Y-42387000D02*
G01*
X82491000Y-42387000D01*
X82491000Y-44394000D01*
X81369000Y-44394000D01*
X81369000Y-42387000D01*
G37*
X81369000Y-42387000D02*
X82491000Y-42387000D01*
X82491000Y-44394000D01*
X81369000Y-44394000D01*
X81369000Y-42387000D01*
G36*
X101689000Y-42387000D02*
G01*
X102811000Y-42387000D01*
X102811000Y-44394000D01*
X101689000Y-44394000D01*
X101689000Y-42387000D01*
G37*
X101689000Y-42387000D02*
X102811000Y-42387000D01*
X102811000Y-44394000D01*
X101689000Y-44394000D01*
X101689000Y-42387000D01*
G36*
X96609000Y-42387000D02*
G01*
X97731000Y-42387000D01*
X97731000Y-44394000D01*
X96609000Y-44394000D01*
X96609000Y-42387000D01*
G37*
X96609000Y-42387000D02*
X97731000Y-42387000D01*
X97731000Y-44394000D01*
X96609000Y-44394000D01*
X96609000Y-42387000D01*
G36*
X122009000Y-42387000D02*
G01*
X123131000Y-42387000D01*
X123131000Y-44394000D01*
X122009000Y-44394000D01*
X122009000Y-42387000D01*
G37*
X122009000Y-42387000D02*
X123131000Y-42387000D01*
X123131000Y-44394000D01*
X122009000Y-44394000D01*
X122009000Y-42387000D01*
G36*
X116929000Y-42387000D02*
G01*
X118051000Y-42387000D01*
X118051000Y-44394000D01*
X116929000Y-44394000D01*
X116929000Y-42387000D01*
G37*
X116929000Y-42387000D02*
X118051000Y-42387000D01*
X118051000Y-44394000D01*
X116929000Y-44394000D01*
X116929000Y-42387000D01*
G36*
X106769000Y-42387000D02*
G01*
X107891000Y-42387000D01*
X107891000Y-44394000D01*
X106769000Y-44394000D01*
X106769000Y-42387000D01*
G37*
X106769000Y-42387000D02*
X107891000Y-42387000D01*
X107891000Y-44394000D01*
X106769000Y-44394000D01*
X106769000Y-42387000D01*
G36*
X132169000Y-42387000D02*
G01*
X133291000Y-42387000D01*
X133291000Y-44394000D01*
X132169000Y-44394000D01*
X132169000Y-42387000D01*
G37*
X132169000Y-42387000D02*
X133291000Y-42387000D01*
X133291000Y-44394000D01*
X132169000Y-44394000D01*
X132169000Y-42387000D01*
G36*
X111849000Y-42387000D02*
G01*
X112971000Y-42387000D01*
X112971000Y-44394000D01*
X111849000Y-44394000D01*
X111849000Y-42387000D01*
G37*
X111849000Y-42387000D02*
X112971000Y-42387000D01*
X112971000Y-44394000D01*
X111849000Y-44394000D01*
X111849000Y-42387000D01*
G36*
X91529000Y-42387000D02*
G01*
X92651000Y-42387000D01*
X92651000Y-44394000D01*
X91529000Y-44394000D01*
X91529000Y-42387000D01*
G37*
X91529000Y-42387000D02*
X92651000Y-42387000D01*
X92651000Y-44394000D01*
X91529000Y-44394000D01*
X91529000Y-42387000D01*
D11*
X132106000Y-45168000D02*
G75*
G03*
X132106000Y-45168000I-646000J0D01*
G01*
D10*
G36*
X99149000Y-45943000D02*
G01*
X100271000Y-45943000D01*
X100271000Y-47950000D01*
X99149000Y-47950000D01*
X99149000Y-45943000D01*
G37*
X99149000Y-45943000D02*
X100271000Y-45943000D01*
X100271000Y-47950000D01*
X99149000Y-47950000D01*
X99149000Y-45943000D01*
G36*
X94069000Y-45943000D02*
G01*
X95191000Y-45943000D01*
X95191000Y-47950000D01*
X94069000Y-47950000D01*
X94069000Y-45943000D01*
G37*
X94069000Y-45943000D02*
X95191000Y-45943000D01*
X95191000Y-47950000D01*
X94069000Y-47950000D01*
X94069000Y-45943000D01*
G36*
X124549000Y-45943000D02*
G01*
X125671000Y-45943000D01*
X125671000Y-47950000D01*
X124549000Y-47950000D01*
X124549000Y-45943000D01*
G37*
X124549000Y-45943000D02*
X125671000Y-45943000D01*
X125671000Y-47950000D01*
X124549000Y-47950000D01*
X124549000Y-45943000D01*
G36*
X109309000Y-45943000D02*
G01*
X110431000Y-45943000D01*
X110431000Y-47950000D01*
X109309000Y-47950000D01*
X109309000Y-45943000D01*
G37*
X109309000Y-45943000D02*
X110431000Y-45943000D01*
X110431000Y-47950000D01*
X109309000Y-47950000D01*
X109309000Y-45943000D01*
G36*
X119469000Y-45943000D02*
G01*
X120591000Y-45943000D01*
X120591000Y-47950000D01*
X119469000Y-47950000D01*
X119469000Y-45943000D01*
G37*
X119469000Y-45943000D02*
X120591000Y-45943000D01*
X120591000Y-47950000D01*
X119469000Y-47950000D01*
X119469000Y-45943000D01*
G36*
X114389000Y-45943000D02*
G01*
X115511000Y-45943000D01*
X115511000Y-47950000D01*
X114389000Y-47950000D01*
X114389000Y-45943000D01*
G37*
X114389000Y-45943000D02*
X115511000Y-45943000D01*
X115511000Y-47950000D01*
X114389000Y-47950000D01*
X114389000Y-45943000D01*
G36*
X127089000Y-42387000D02*
G01*
X128211000Y-42387000D01*
X128211000Y-44394000D01*
X127089000Y-44394000D01*
X127089000Y-42387000D01*
G37*
X127089000Y-42387000D02*
X128211000Y-42387000D01*
X128211000Y-44394000D01*
X127089000Y-44394000D01*
X127089000Y-42387000D01*
G36*
X129629000Y-45943000D02*
G01*
X130751000Y-45943000D01*
X130751000Y-47950000D01*
X129629000Y-47950000D01*
X129629000Y-45943000D01*
G37*
X129629000Y-45943000D02*
X130751000Y-45943000D01*
X130751000Y-47950000D01*
X129629000Y-47950000D01*
X129629000Y-45943000D01*
G36*
X104229000Y-45943000D02*
G01*
X105351000Y-45943000D01*
X105351000Y-47950000D01*
X104229000Y-47950000D01*
X104229000Y-45943000D01*
G37*
X104229000Y-45943000D02*
X105351000Y-45943000D01*
X105351000Y-47950000D01*
X104229000Y-47950000D01*
X104229000Y-45943000D01*
D11*
X76226000Y-45168000D02*
G75*
G03*
X76226000Y-45168000I-646000J0D01*
G01*
D12*
X73970000Y-54990000D03*
D13*
X73970000Y-53320000D03*
X73970000Y-54120000D03*
D12*
X73970000Y-52450000D03*
D13*
X72570000Y-54120000D03*
D12*
X72570000Y-54990000D03*
D13*
X72570000Y-53320000D03*
D12*
X72570000Y-52450000D03*
D14*
X93040000Y-50020000D03*
D15*
X91370000Y-50020000D03*
X92170000Y-50020000D03*
D14*
X90500000Y-50020000D03*
D15*
X92170000Y-51420000D03*
D14*
X93040000Y-51420000D03*
D15*
X91370000Y-51420000D03*
D14*
X90500000Y-51420000D03*
D16*
X38470000Y-27280000D03*
X38470000Y-33480000D03*
X49470000Y-33480000D03*
X49470000Y-27280000D03*
D17*
X43970000Y-31780000D03*
D18*
X43970000Y-27280000D03*
D19*
X54300000Y-27410000D03*
X93030000Y-72150000D03*
D20*
X116010000Y-49285000D03*
X116010000Y-51095000D03*
X116810000Y-49285000D03*
X116810000Y-51095000D03*
X117610000Y-49285000D03*
X117610000Y-51095000D03*
X118410000Y-49285000D03*
X118410000Y-51095000D03*
X119210000Y-49285000D03*
X119210000Y-51095000D03*
X120010000Y-49285000D03*
X120010000Y-51095000D03*
X120810000Y-49285000D03*
X120810000Y-51095000D03*
X121610000Y-49285000D03*
X121610000Y-51095000D03*
G36*
G01*
X74870000Y-82453600D02*
X74870000Y-76506400D01*
G75*
G02*
X75046400Y-76330000I176400J0D01*
G01*
X82093600Y-76330000D01*
G75*
G02*
X82270000Y-76506400I0J-176400D01*
G01*
X82270000Y-82453600D01*
G75*
G02*
X82093600Y-82630000I-176400J0D01*
G01*
X75046400Y-82630000D01*
G75*
G02*
X74870000Y-82453600I0J176400D01*
G01*
G37*
G36*
G01*
X61770000Y-82453600D02*
X61770000Y-76506400D01*
G75*
G02*
X61946400Y-76330000I176400J0D01*
G01*
X68993600Y-76330000D01*
G75*
G02*
X69170000Y-76506400I0J-176400D01*
G01*
X69170000Y-82453600D01*
G75*
G02*
X68993600Y-82630000I-176400J0D01*
G01*
X61946400Y-82630000D01*
G75*
G02*
X61770000Y-82453600I0J176400D01*
G01*
G37*
G36*
G01*
X46080000Y-94986400D02*
X46080000Y-100933600D01*
G75*
G02*
X45903600Y-101110000I-176400J0D01*
G01*
X38856400Y-101110000D01*
G75*
G02*
X38680000Y-100933600I0J176400D01*
G01*
X38680000Y-94986400D01*
G75*
G02*
X38856400Y-94810000I176400J0D01*
G01*
X45903600Y-94810000D01*
G75*
G02*
X46080000Y-94986400I0J-176400D01*
G01*
G37*
G36*
G01*
X59180000Y-94986400D02*
X59180000Y-100933600D01*
G75*
G02*
X59003600Y-101110000I-176400J0D01*
G01*
X51956400Y-101110000D01*
G75*
G02*
X51780000Y-100933600I0J176400D01*
G01*
X51780000Y-94986400D01*
G75*
G02*
X51956400Y-94810000I176400J0D01*
G01*
X59003600Y-94810000D01*
G75*
G02*
X59180000Y-94986400I0J-176400D01*
G01*
G37*
G36*
G01*
X46080000Y-75476400D02*
X46080000Y-81423600D01*
G75*
G02*
X45903600Y-81600000I-176400J0D01*
G01*
X38856400Y-81600000D01*
G75*
G02*
X38680000Y-81423600I0J176400D01*
G01*
X38680000Y-75476400D01*
G75*
G02*
X38856400Y-75300000I176400J0D01*
G01*
X45903600Y-75300000D01*
G75*
G02*
X46080000Y-75476400I0J-176400D01*
G01*
G37*
G36*
G01*
X59180000Y-75476400D02*
X59180000Y-81423600D01*
G75*
G02*
X59003600Y-81600000I-176400J0D01*
G01*
X51956400Y-81600000D01*
G75*
G02*
X51780000Y-81423600I0J176400D01*
G01*
X51780000Y-75476400D01*
G75*
G02*
X51956400Y-75300000I176400J0D01*
G01*
X59003600Y-75300000D01*
G75*
G02*
X59180000Y-75476400I0J-176400D01*
G01*
G37*
D21*
X133450000Y-31470000D03*
X133450000Y-113970000D03*
X50950000Y-113970000D03*
D22*
X66410000Y-60520000D03*
X61330000Y-60520000D03*
X56250000Y-60520000D03*
X51170000Y-60520000D03*
X68950000Y-63830000D03*
X63870000Y-63830000D03*
X58790000Y-63830000D03*
X53710000Y-63830000D03*
G36*
G01*
X91155000Y-79205000D02*
X91155000Y-79555000D01*
G75*
G02*
X90980000Y-79730000I-175000J0D01*
G01*
X89280000Y-79730000D01*
G75*
G02*
X89105000Y-79555000I0J175000D01*
G01*
X89105000Y-79205000D01*
G75*
G02*
X89280000Y-79030000I175000J0D01*
G01*
X90980000Y-79030000D01*
G75*
G02*
X91155000Y-79205000I0J-175000D01*
G01*
G37*
G36*
G01*
X91155000Y-77935000D02*
X91155000Y-78285000D01*
G75*
G02*
X90980000Y-78460000I-175000J0D01*
G01*
X89280000Y-78460000D01*
G75*
G02*
X89105000Y-78285000I0J175000D01*
G01*
X89105000Y-77935000D01*
G75*
G02*
X89280000Y-77760000I175000J0D01*
G01*
X90980000Y-77760000D01*
G75*
G02*
X91155000Y-77935000I0J-175000D01*
G01*
G37*
G36*
G01*
X91155000Y-76665000D02*
X91155000Y-77015000D01*
G75*
G02*
X90980000Y-77190000I-175000J0D01*
G01*
X89280000Y-77190000D01*
G75*
G02*
X89105000Y-77015000I0J175000D01*
G01*
X89105000Y-76665000D01*
G75*
G02*
X89280000Y-76490000I175000J0D01*
G01*
X90980000Y-76490000D01*
G75*
G02*
X91155000Y-76665000I0J-175000D01*
G01*
G37*
G36*
G01*
X91155000Y-75395000D02*
X91155000Y-75745000D01*
G75*
G02*
X90980000Y-75920000I-175000J0D01*
G01*
X89280000Y-75920000D01*
G75*
G02*
X89105000Y-75745000I0J175000D01*
G01*
X89105000Y-75395000D01*
G75*
G02*
X89280000Y-75220000I175000J0D01*
G01*
X90980000Y-75220000D01*
G75*
G02*
X91155000Y-75395000I0J-175000D01*
G01*
G37*
G36*
G01*
X96105000Y-75395000D02*
X96105000Y-75745000D01*
G75*
G02*
X95930000Y-75920000I-175000J0D01*
G01*
X94230000Y-75920000D01*
G75*
G02*
X94055000Y-75745000I0J175000D01*
G01*
X94055000Y-75395000D01*
G75*
G02*
X94230000Y-75220000I175000J0D01*
G01*
X95930000Y-75220000D01*
G75*
G02*
X96105000Y-75395000I0J-175000D01*
G01*
G37*
G36*
G01*
X96105000Y-76665000D02*
X96105000Y-77015000D01*
G75*
G02*
X95930000Y-77190000I-175000J0D01*
G01*
X94230000Y-77190000D01*
G75*
G02*
X94055000Y-77015000I0J175000D01*
G01*
X94055000Y-76665000D01*
G75*
G02*
X94230000Y-76490000I175000J0D01*
G01*
X95930000Y-76490000D01*
G75*
G02*
X96105000Y-76665000I0J-175000D01*
G01*
G37*
G36*
G01*
X96105000Y-77935000D02*
X96105000Y-78285000D01*
G75*
G02*
X95930000Y-78460000I-175000J0D01*
G01*
X94230000Y-78460000D01*
G75*
G02*
X94055000Y-78285000I0J175000D01*
G01*
X94055000Y-77935000D01*
G75*
G02*
X94230000Y-77760000I175000J0D01*
G01*
X95930000Y-77760000D01*
G75*
G02*
X96105000Y-77935000I0J-175000D01*
G01*
G37*
G36*
G01*
X96105000Y-79205000D02*
X96105000Y-79555000D01*
G75*
G02*
X95930000Y-79730000I-175000J0D01*
G01*
X94230000Y-79730000D01*
G75*
G02*
X94055000Y-79555000I0J175000D01*
G01*
X94055000Y-79205000D01*
G75*
G02*
X94230000Y-79030000I175000J0D01*
G01*
X95930000Y-79030000D01*
G75*
G02*
X96105000Y-79205000I0J-175000D01*
G01*
G37*
D23*
X75580000Y-60408000D03*
X131460000Y-60408000D03*
X75580000Y-45168000D03*
X131460000Y-45168000D03*
D24*
X66560000Y-45930000D03*
X69100000Y-45930000D03*
X69100000Y-55430000D03*
X66560000Y-55430000D03*
X61670000Y-45930000D03*
X64210000Y-45930000D03*
X64210000Y-55430000D03*
X61670000Y-55430000D03*
X56780000Y-45930000D03*
X59320000Y-45930000D03*
X59320000Y-55430000D03*
X56780000Y-55430000D03*
X51890000Y-45930000D03*
X54430000Y-45930000D03*
X54430000Y-55430000D03*
X51890000Y-55430000D03*
D25*
X102360000Y-70070000D03*
X101860000Y-70070000D03*
X101360000Y-70070000D03*
X100860000Y-70070000D03*
X100360000Y-70070000D03*
X100360000Y-74370000D03*
X100860000Y-74370000D03*
X101360000Y-74370000D03*
X101860000Y-74370000D03*
X102360000Y-74370000D03*
D26*
X101740000Y-67640000D03*
X100520000Y-67640000D03*
D27*
X43920000Y-53080000D03*
X43920000Y-48000000D03*
X40610000Y-50540000D03*
D28*
X110510000Y-102810000D03*
X110510000Y-97730000D03*
D29*
X118910000Y-100270000D03*
D28*
X110510000Y-93810000D03*
X110510000Y-88730000D03*
D29*
X118910000Y-91270000D03*
D28*
X110510000Y-84800000D03*
X110510000Y-79720000D03*
D29*
X118910000Y-82260000D03*
D28*
X110520000Y-75810000D03*
X110520000Y-70730000D03*
D29*
X118920000Y-73270000D03*
D30*
X77030000Y-56200000D03*
X77680000Y-56200000D03*
X78330000Y-56200000D03*
X78980000Y-56200000D03*
X79630000Y-56200000D03*
X80280000Y-56200000D03*
X80930000Y-56200000D03*
X80930000Y-50460000D03*
X80280000Y-50460000D03*
X79630000Y-50460000D03*
X78980000Y-50460000D03*
X78330000Y-50460000D03*
X77680000Y-50460000D03*
X77030000Y-50460000D03*
G36*
G01*
X62505000Y-97735000D02*
X61195000Y-97735000D01*
G75*
G02*
X60925000Y-97465000I0J270000D01*
G01*
X60925000Y-96655000D01*
G75*
G02*
X61195000Y-96385000I270000J0D01*
G01*
X62505000Y-96385000D01*
G75*
G02*
X62775000Y-96655000I0J-270000D01*
G01*
X62775000Y-97465000D01*
G75*
G02*
X62505000Y-97735000I-270000J0D01*
G01*
G37*
G36*
G01*
X62505000Y-100535000D02*
X61195000Y-100535000D01*
G75*
G02*
X60925000Y-100265000I0J270000D01*
G01*
X60925000Y-99455000D01*
G75*
G02*
X61195000Y-99185000I270000J0D01*
G01*
X62505000Y-99185000D01*
G75*
G02*
X62775000Y-99455000I0J-270000D01*
G01*
X62775000Y-100265000D01*
G75*
G02*
X62505000Y-100535000I-270000J0D01*
G01*
G37*
G36*
G01*
X47325000Y-53095000D02*
X47325000Y-54405000D01*
G75*
G02*
X47055000Y-54675000I-270000J0D01*
G01*
X46245000Y-54675000D01*
G75*
G02*
X45975000Y-54405000I0J270000D01*
G01*
X45975000Y-53095000D01*
G75*
G02*
X46245000Y-52825000I270000J0D01*
G01*
X47055000Y-52825000D01*
G75*
G02*
X47325000Y-53095000I0J-270000D01*
G01*
G37*
G36*
G01*
X50125000Y-53095000D02*
X50125000Y-54405000D01*
G75*
G02*
X49855000Y-54675000I-270000J0D01*
G01*
X49045000Y-54675000D01*
G75*
G02*
X48775000Y-54405000I0J270000D01*
G01*
X48775000Y-53095000D01*
G75*
G02*
X49045000Y-52825000I270000J0D01*
G01*
X49855000Y-52825000D01*
G75*
G02*
X50125000Y-53095000I0J-270000D01*
G01*
G37*
G36*
G01*
X62825000Y-66535000D02*
X62825000Y-67845000D01*
G75*
G02*
X62555000Y-68115000I-270000J0D01*
G01*
X61745000Y-68115000D01*
G75*
G02*
X61475000Y-67845000I0J270000D01*
G01*
X61475000Y-66535000D01*
G75*
G02*
X61745000Y-66265000I270000J0D01*
G01*
X62555000Y-66265000D01*
G75*
G02*
X62825000Y-66535000I0J-270000D01*
G01*
G37*
G36*
G01*
X65625000Y-66535000D02*
X65625000Y-67845000D01*
G75*
G02*
X65355000Y-68115000I-270000J0D01*
G01*
X64545000Y-68115000D01*
G75*
G02*
X64275000Y-67845000I0J270000D01*
G01*
X64275000Y-66535000D01*
G75*
G02*
X64545000Y-66265000I270000J0D01*
G01*
X65355000Y-66265000D01*
G75*
G02*
X65625000Y-66535000I0J-270000D01*
G01*
G37*
D31*
X93810000Y-68630000D03*
X93810000Y-67410000D03*
D26*
X83400000Y-73080000D03*
X84620000Y-73080000D03*
D31*
X87800000Y-53060000D03*
X87800000Y-51840000D03*
G36*
G01*
X70152500Y-57688750D02*
X70152500Y-58251250D01*
G75*
G02*
X69908750Y-58495000I-243750J0D01*
G01*
X69421250Y-58495000D01*
G75*
G02*
X69177500Y-58251250I0J243750D01*
G01*
X69177500Y-57688750D01*
G75*
G02*
X69421250Y-57445000I243750J0D01*
G01*
X69908750Y-57445000D01*
G75*
G02*
X70152500Y-57688750I0J-243750D01*
G01*
G37*
G36*
G01*
X71727500Y-57688750D02*
X71727500Y-58251250D01*
G75*
G02*
X71483750Y-58495000I-243750J0D01*
G01*
X70996250Y-58495000D01*
G75*
G02*
X70752500Y-58251250I0J243750D01*
G01*
X70752500Y-57688750D01*
G75*
G02*
X70996250Y-57445000I243750J0D01*
G01*
X71483750Y-57445000D01*
G75*
G02*
X71727500Y-57688750I0J-243750D01*
G01*
G37*
G36*
G01*
X57767500Y-66158750D02*
X57767500Y-66721250D01*
G75*
G02*
X57523750Y-66965000I-243750J0D01*
G01*
X57036250Y-66965000D01*
G75*
G02*
X56792500Y-66721250I0J243750D01*
G01*
X56792500Y-66158750D01*
G75*
G02*
X57036250Y-65915000I243750J0D01*
G01*
X57523750Y-65915000D01*
G75*
G02*
X57767500Y-66158750I0J-243750D01*
G01*
G37*
G36*
G01*
X59342500Y-66158750D02*
X59342500Y-66721250D01*
G75*
G02*
X59098750Y-66965000I-243750J0D01*
G01*
X58611250Y-66965000D01*
G75*
G02*
X58367500Y-66721250I0J243750D01*
G01*
X58367500Y-66158750D01*
G75*
G02*
X58611250Y-65915000I243750J0D01*
G01*
X59098750Y-65915000D01*
G75*
G02*
X59342500Y-66158750I0J-243750D01*
G01*
G37*
D32*
X99960000Y-84610000D03*
X96023000Y-84610000D03*
D33*
X82290000Y-56090000D03*
X84390000Y-56090000D03*
G36*
G01*
X75765000Y-39855000D02*
X75765000Y-38545000D01*
G75*
G02*
X76035000Y-38275000I270000J0D01*
G01*
X76845000Y-38275000D01*
G75*
G02*
X77115000Y-38545000I0J-270000D01*
G01*
X77115000Y-39855000D01*
G75*
G02*
X76845000Y-40125000I-270000J0D01*
G01*
X76035000Y-40125000D01*
G75*
G02*
X75765000Y-39855000I0J270000D01*
G01*
G37*
G36*
G01*
X72965000Y-39855000D02*
X72965000Y-38545000D01*
G75*
G02*
X73235000Y-38275000I270000J0D01*
G01*
X74045000Y-38275000D01*
G75*
G02*
X74315000Y-38545000I0J-270000D01*
G01*
X74315000Y-39855000D01*
G75*
G02*
X74045000Y-40125000I-270000J0D01*
G01*
X73235000Y-40125000D01*
G75*
G02*
X72965000Y-39855000I0J270000D01*
G01*
G37*
D34*
X122650000Y-107580000D03*
X133350000Y-107580000D03*
G36*
G01*
X45036482Y-49015000D02*
X42823518Y-49015000D01*
G75*
G02*
X42555000Y-48746482I0J268518D01*
G01*
X42555000Y-47833518D01*
G75*
G02*
X42823518Y-47565000I268518J0D01*
G01*
X45036482Y-47565000D01*
G75*
G02*
X45305000Y-47833518I0J-268518D01*
G01*
X45305000Y-48746482D01*
G75*
G02*
X45036482Y-49015000I-268518J0D01*
G01*
G37*
G36*
G01*
X45036482Y-53515000D02*
X42823518Y-53515000D01*
G75*
G02*
X42555000Y-53246482I0J268518D01*
G01*
X42555000Y-52333518D01*
G75*
G02*
X42823518Y-52065000I268518J0D01*
G01*
X45036482Y-52065000D01*
G75*
G02*
X45305000Y-52333518I0J-268518D01*
G01*
X45305000Y-53246482D01*
G75*
G02*
X45036482Y-53515000I-268518J0D01*
G01*
G37*
G36*
G01*
X89645000Y-67975000D02*
X91855000Y-67975000D01*
G75*
G02*
X92125000Y-68245000I0J-270000D01*
G01*
X92125000Y-69055000D01*
G75*
G02*
X91855000Y-69325000I-270000J0D01*
G01*
X89645000Y-69325000D01*
G75*
G02*
X89375000Y-69055000I0J270000D01*
G01*
X89375000Y-68245000D01*
G75*
G02*
X89645000Y-67975000I270000J0D01*
G01*
G37*
G36*
G01*
X89645000Y-65175000D02*
X91855000Y-65175000D01*
G75*
G02*
X92125000Y-65445000I0J-270000D01*
G01*
X92125000Y-66255000D01*
G75*
G02*
X91855000Y-66525000I-270000J0D01*
G01*
X89645000Y-66525000D01*
G75*
G02*
X89375000Y-66255000I0J270000D01*
G01*
X89375000Y-65445000D01*
G75*
G02*
X89645000Y-65175000I270000J0D01*
G01*
G37*
G36*
G01*
X80205000Y-69235000D02*
X80205000Y-67025000D01*
G75*
G02*
X80475000Y-66755000I270000J0D01*
G01*
X81285000Y-66755000D01*
G75*
G02*
X81555000Y-67025000I0J-270000D01*
G01*
X81555000Y-69235000D01*
G75*
G02*
X81285000Y-69505000I-270000J0D01*
G01*
X80475000Y-69505000D01*
G75*
G02*
X80205000Y-69235000I0J270000D01*
G01*
G37*
G36*
G01*
X77405000Y-69235000D02*
X77405000Y-67025000D01*
G75*
G02*
X77675000Y-66755000I270000J0D01*
G01*
X78485000Y-66755000D01*
G75*
G02*
X78755000Y-67025000I0J-270000D01*
G01*
X78755000Y-69235000D01*
G75*
G02*
X78485000Y-69505000I-270000J0D01*
G01*
X77675000Y-69505000D01*
G75*
G02*
X77405000Y-69235000I0J270000D01*
G01*
G37*
D35*
X130620003Y-67289600D03*
X130120001Y-67289600D03*
X129620002Y-67289600D03*
X129120001Y-67289600D03*
X128620001Y-67289600D03*
X128120003Y-67289600D03*
X127620001Y-67289600D03*
X127120002Y-67289600D03*
X127119999Y-68580000D03*
X127620001Y-68580000D03*
X128120000Y-68580000D03*
X128620001Y-68580000D03*
X129120001Y-68580000D03*
X129619999Y-68580000D03*
X130120001Y-68580000D03*
X130620000Y-68580000D03*
D36*
X87410000Y-79034400D03*
D37*
X86140000Y-81930000D03*
D36*
X84870000Y-79034400D03*
D38*
X126950000Y-120040000D03*
X124410000Y-120040000D03*
D22*
X128220000Y-118385000D03*
X123140000Y-118385000D03*
X125680000Y-121695000D03*
D38*
X41325000Y-118390000D03*
X41325000Y-110770000D03*
D27*
X42980000Y-119660000D03*
X42980000Y-114580000D03*
X42980000Y-109500000D03*
X39670000Y-117120000D03*
X39670000Y-112040000D03*
D16*
X86270000Y-122140000D03*
X95130000Y-122140000D03*
X90700000Y-102250000D03*
X86270000Y-102250000D03*
X95130000Y-102250000D03*
D39*
X88117000Y-70715000D03*
X88117000Y-69445000D03*
X88117000Y-68175000D03*
X88117000Y-66905000D03*
X82783000Y-66905000D03*
X82783000Y-68175000D03*
X82783000Y-69445000D03*
X82783000Y-70715000D03*
D40*
X85450000Y-68810000D03*
D41*
X98750000Y-67710000D03*
X98750000Y-69610000D03*
X96130000Y-69610000D03*
X96130000Y-68660000D03*
X96130000Y-67710000D03*
D42*
X92135000Y-92495000D03*
D43*
X101285000Y-89955000D03*
X101285000Y-95035000D03*
D44*
X60882500Y-26090000D03*
X120822500Y-26090000D03*
X90852500Y-26090000D03*
D45*
X119632500Y-30680000D03*
X62072500Y-30680000D03*
D46*
X118915000Y-39130000D03*
X117645000Y-39130000D03*
X116375000Y-39130000D03*
X115105000Y-39130000D03*
X113835000Y-39130000D03*
X112565000Y-39130000D03*
X111295000Y-39130000D03*
X110025000Y-39130000D03*
X103170000Y-39130000D03*
X101900000Y-39130000D03*
X100630000Y-39130000D03*
X99360000Y-39130000D03*
X98090000Y-39130000D03*
X96820000Y-39130000D03*
X95550000Y-39130000D03*
X94280000Y-39130000D03*
X87425000Y-39130000D03*
X86155000Y-39130000D03*
X84885000Y-39130000D03*
X83615000Y-39130000D03*
X82345000Y-39130000D03*
X81075000Y-39130000D03*
X79805000Y-39130000D03*
X78535000Y-39130000D03*
X71680000Y-39130000D03*
X70410000Y-39130000D03*
X69140000Y-39130000D03*
X67870000Y-39130000D03*
X66600000Y-39130000D03*
X65330000Y-39130000D03*
X64060000Y-39130000D03*
X62790000Y-39130000D03*
G36*
G01*
X124400000Y-95958750D02*
X124400000Y-96521250D01*
G75*
G02*
X124156250Y-96765000I-243750J0D01*
G01*
X123668750Y-96765000D01*
G75*
G02*
X123425000Y-96521250I0J243750D01*
G01*
X123425000Y-95958750D01*
G75*
G02*
X123668750Y-95715000I243750J0D01*
G01*
X124156250Y-95715000D01*
G75*
G02*
X124400000Y-95958750I0J-243750D01*
G01*
G37*
G36*
G01*
X125975000Y-95958750D02*
X125975000Y-96521250D01*
G75*
G02*
X125731250Y-96765000I-243750J0D01*
G01*
X125243750Y-96765000D01*
G75*
G02*
X125000000Y-96521250I0J243750D01*
G01*
X125000000Y-95958750D01*
G75*
G02*
X125243750Y-95715000I243750J0D01*
G01*
X125731250Y-95715000D01*
G75*
G02*
X125975000Y-95958750I0J-243750D01*
G01*
G37*
D16*
X98260000Y-122140000D03*
X107120000Y-122140000D03*
X102690000Y-102250000D03*
X98260000Y-102250000D03*
X107120000Y-102250000D03*
D34*
X112630000Y-55220000D03*
X101930000Y-55220000D03*
D47*
X115640000Y-55230000D03*
X115640000Y-53930000D03*
X117540000Y-54580000D03*
X115640000Y-54580000D03*
X117540000Y-53930000D03*
X117540000Y-55230000D03*
X89030000Y-55180000D03*
X89030000Y-56480000D03*
X87130000Y-55830000D03*
X89030000Y-55830000D03*
X87130000Y-56480000D03*
X87130000Y-55180000D03*
D48*
X116270000Y-113460000D03*
X116270000Y-122460000D03*
G36*
G01*
X71665000Y-97735000D02*
X70355000Y-97735000D01*
G75*
G02*
X70085000Y-97465000I0J270000D01*
G01*
X70085000Y-96655000D01*
G75*
G02*
X70355000Y-96385000I270000J0D01*
G01*
X71665000Y-96385000D01*
G75*
G02*
X71935000Y-96655000I0J-270000D01*
G01*
X71935000Y-97465000D01*
G75*
G02*
X71665000Y-97735000I-270000J0D01*
G01*
G37*
G36*
G01*
X71665000Y-100535000D02*
X70355000Y-100535000D01*
G75*
G02*
X70085000Y-100265000I0J270000D01*
G01*
X70085000Y-99455000D01*
G75*
G02*
X70355000Y-99185000I270000J0D01*
G01*
X71665000Y-99185000D01*
G75*
G02*
X71935000Y-99455000I0J-270000D01*
G01*
X71935000Y-100265000D01*
G75*
G02*
X71665000Y-100535000I-270000J0D01*
G01*
G37*
D49*
X75470000Y-94610000D03*
D50*
X66970000Y-92110000D03*
D22*
X45080000Y-40030000D03*
X40000000Y-40030000D03*
X47620000Y-43340000D03*
X42540000Y-43340000D03*
D49*
X46390000Y-62990000D03*
X40390000Y-62990000D03*
D16*
X74270000Y-122140000D03*
X83130000Y-122140000D03*
X78700000Y-102250000D03*
X74270000Y-102250000D03*
X83130000Y-102250000D03*
X62270000Y-122140000D03*
X71130000Y-122140000D03*
X66700000Y-102250000D03*
X62270000Y-102250000D03*
X71130000Y-102250000D03*
G36*
G01*
X98562500Y-98638750D02*
X98562500Y-99201250D01*
G75*
G02*
X98318750Y-99445000I-243750J0D01*
G01*
X97831250Y-99445000D01*
G75*
G02*
X97587500Y-99201250I0J243750D01*
G01*
X97587500Y-98638750D01*
G75*
G02*
X97831250Y-98395000I243750J0D01*
G01*
X98318750Y-98395000D01*
G75*
G02*
X98562500Y-98638750I0J-243750D01*
G01*
G37*
G36*
G01*
X100137500Y-98638750D02*
X100137500Y-99201250D01*
G75*
G02*
X99893750Y-99445000I-243750J0D01*
G01*
X99406250Y-99445000D01*
G75*
G02*
X99162500Y-99201250I0J243750D01*
G01*
X99162500Y-98638750D01*
G75*
G02*
X99406250Y-98395000I243750J0D01*
G01*
X99893750Y-98395000D01*
G75*
G02*
X100137500Y-98638750I0J-243750D01*
G01*
G37*
D36*
X97740000Y-79545600D03*
D37*
X99010000Y-76650000D03*
D36*
X100280000Y-79545600D03*
G36*
G01*
X53565000Y-68215000D02*
X53565000Y-66005000D01*
G75*
G02*
X53835000Y-65735000I270000J0D01*
G01*
X54645000Y-65735000D01*
G75*
G02*
X54915000Y-66005000I0J-270000D01*
G01*
X54915000Y-68215000D01*
G75*
G02*
X54645000Y-68485000I-270000J0D01*
G01*
X53835000Y-68485000D01*
G75*
G02*
X53565000Y-68215000I0J270000D01*
G01*
G37*
G36*
G01*
X50765000Y-68215000D02*
X50765000Y-66005000D01*
G75*
G02*
X51035000Y-65735000I270000J0D01*
G01*
X51845000Y-65735000D01*
G75*
G02*
X52115000Y-66005000I0J-270000D01*
G01*
X52115000Y-68215000D01*
G75*
G02*
X51845000Y-68485000I-270000J0D01*
G01*
X51035000Y-68485000D01*
G75*
G02*
X50765000Y-68215000I0J270000D01*
G01*
G37*
D47*
X121670000Y-53830000D03*
X121670000Y-55130000D03*
X119770000Y-54480000D03*
X121670000Y-54480000D03*
X119770000Y-55130000D03*
X119770000Y-53830000D03*
D31*
X74890000Y-50460000D03*
X74890000Y-49240000D03*
G36*
G01*
X92652500Y-81221250D02*
X92652500Y-80658750D01*
G75*
G02*
X92896250Y-80415000I243750J0D01*
G01*
X93383750Y-80415000D01*
G75*
G02*
X93627500Y-80658750I0J-243750D01*
G01*
X93627500Y-81221250D01*
G75*
G02*
X93383750Y-81465000I-243750J0D01*
G01*
X92896250Y-81465000D01*
G75*
G02*
X92652500Y-81221250I0J243750D01*
G01*
G37*
G36*
G01*
X91077500Y-81221250D02*
X91077500Y-80658750D01*
G75*
G02*
X91321250Y-80415000I243750J0D01*
G01*
X91808750Y-80415000D01*
G75*
G02*
X92052500Y-80658750I0J-243750D01*
G01*
X92052500Y-81221250D01*
G75*
G02*
X91808750Y-81465000I-243750J0D01*
G01*
X91321250Y-81465000D01*
G75*
G02*
X91077500Y-81221250I0J243750D01*
G01*
G37*
D26*
X96590000Y-72820000D03*
X97810000Y-72820000D03*
X88070000Y-76540000D03*
X86850000Y-76540000D03*
G36*
G01*
X67605000Y-66565000D02*
X67605000Y-67875000D01*
G75*
G02*
X67335000Y-68145000I-270000J0D01*
G01*
X66525000Y-68145000D01*
G75*
G02*
X66255000Y-67875000I0J270000D01*
G01*
X66255000Y-66565000D01*
G75*
G02*
X66525000Y-66295000I270000J0D01*
G01*
X67335000Y-66295000D01*
G75*
G02*
X67605000Y-66565000I0J-270000D01*
G01*
G37*
G36*
G01*
X70405000Y-66565000D02*
X70405000Y-67875000D01*
G75*
G02*
X70135000Y-68145000I-270000J0D01*
G01*
X69325000Y-68145000D01*
G75*
G02*
X69055000Y-67875000I0J270000D01*
G01*
X69055000Y-66565000D01*
G75*
G02*
X69325000Y-66295000I270000J0D01*
G01*
X70135000Y-66295000D01*
G75*
G02*
X70405000Y-66565000I0J-270000D01*
G01*
G37*
G36*
G01*
X69375000Y-97735000D02*
X68065000Y-97735000D01*
G75*
G02*
X67795000Y-97465000I0J270000D01*
G01*
X67795000Y-96655000D01*
G75*
G02*
X68065000Y-96385000I270000J0D01*
G01*
X69375000Y-96385000D01*
G75*
G02*
X69645000Y-96655000I0J-270000D01*
G01*
X69645000Y-97465000D01*
G75*
G02*
X69375000Y-97735000I-270000J0D01*
G01*
G37*
G36*
G01*
X69375000Y-100535000D02*
X68065000Y-100535000D01*
G75*
G02*
X67795000Y-100265000I0J270000D01*
G01*
X67795000Y-99455000D01*
G75*
G02*
X68065000Y-99185000I270000J0D01*
G01*
X69375000Y-99185000D01*
G75*
G02*
X69645000Y-99455000I0J-270000D01*
G01*
X69645000Y-100265000D01*
G75*
G02*
X69375000Y-100535000I-270000J0D01*
G01*
G37*
G36*
G01*
X67085000Y-97735000D02*
X65775000Y-97735000D01*
G75*
G02*
X65505000Y-97465000I0J270000D01*
G01*
X65505000Y-96655000D01*
G75*
G02*
X65775000Y-96385000I270000J0D01*
G01*
X67085000Y-96385000D01*
G75*
G02*
X67355000Y-96655000I0J-270000D01*
G01*
X67355000Y-97465000D01*
G75*
G02*
X67085000Y-97735000I-270000J0D01*
G01*
G37*
G36*
G01*
X67085000Y-100535000D02*
X65775000Y-100535000D01*
G75*
G02*
X65505000Y-100265000I0J270000D01*
G01*
X65505000Y-99455000D01*
G75*
G02*
X65775000Y-99185000I270000J0D01*
G01*
X67085000Y-99185000D01*
G75*
G02*
X67355000Y-99455000I0J-270000D01*
G01*
X67355000Y-100265000D01*
G75*
G02*
X67085000Y-100535000I-270000J0D01*
G01*
G37*
G36*
G01*
X64795000Y-97735000D02*
X63485000Y-97735000D01*
G75*
G02*
X63215000Y-97465000I0J270000D01*
G01*
X63215000Y-96655000D01*
G75*
G02*
X63485000Y-96385000I270000J0D01*
G01*
X64795000Y-96385000D01*
G75*
G02*
X65065000Y-96655000I0J-270000D01*
G01*
X65065000Y-97465000D01*
G75*
G02*
X64795000Y-97735000I-270000J0D01*
G01*
G37*
G36*
G01*
X64795000Y-100535000D02*
X63485000Y-100535000D01*
G75*
G02*
X63215000Y-100265000I0J270000D01*
G01*
X63215000Y-99455000D01*
G75*
G02*
X63485000Y-99185000I270000J0D01*
G01*
X64795000Y-99185000D01*
G75*
G02*
X65065000Y-99455000I0J-270000D01*
G01*
X65065000Y-100265000D01*
G75*
G02*
X64795000Y-100535000I-270000J0D01*
G01*
G37*
M02*
