G04 #@! TF.GenerationSoftware,KiCad,Pcbnew,(5.1.6)-1*
G04 #@! TF.CreationDate,2021-06-09T19:53:26-07:00*
G04 #@! TF.ProjectId,Four Channel MHz LED Driver - high current,466f7572-2043-4686-916e-6e656c204d48,rev?*
G04 #@! TF.SameCoordinates,Original*
G04 #@! TF.FileFunction,Paste,Top*
G04 #@! TF.FilePolarity,Positive*
%FSLAX46Y46*%
G04 Gerber Fmt 4.6, Leading zero omitted, Abs format (unit mm)*
G04 Created by KiCad (PCBNEW (5.1.6)-1) date 2021-06-09 19:53:26*
%MOMM*%
%LPD*%
G01*
G04 APERTURE LIST*
%ADD10C,0.010000*%
%ADD11C,0.152400*%
%ADD12R,0.290000X0.787400*%
%ADD13R,0.800000X0.787400*%
%ADD14R,3.800000X2.000000*%
%ADD15R,11.400000X12.700000*%
%ADD16R,3.000000X1.650000*%
%ADD17R,1.020000X1.905000*%
%ADD18R,0.700000X0.640000*%
%ADD19R,0.700000X0.500000*%
%ADD20R,6.220000X3.180000*%
%ADD21R,0.560000X2.540000*%
%ADD22R,0.640000X0.700000*%
%ADD23R,0.500000X0.700000*%
%ADD24R,1.000000X2.510000*%
%ADD25R,0.280000X1.470000*%
%ADD26R,0.900000X2.170000*%
%ADD27R,2.510000X1.000000*%
%ADD28R,0.410000X1.570000*%
%ADD29R,2.170000X0.900000*%
%ADD30R,1.955800X2.159000*%
%ADD31R,0.600000X0.450000*%
%ADD32R,2.600000X2.800000*%
%ADD33R,0.254000X0.685800*%
%ADD34R,1.270000X1.549400*%
%ADD35R,2.006600X1.549400*%
%ADD36R,2.000000X2.000000*%
%ADD37R,1.371600X0.482600*%
%ADD38R,2.413000X3.200400*%
%ADD39R,1.220000X0.650000*%
%ADD40R,4.550000X5.250000*%
%ADD41R,4.600000X1.100000*%
%ADD42R,0.650000X0.400000*%
%ADD43R,3.500000X1.500000*%
G04 APERTURE END LIST*
D10*
G36*
X117960000Y-67068000D02*
G01*
X118980000Y-67068000D01*
X118980000Y-68973000D01*
X117960000Y-68973000D01*
X117960000Y-67068000D01*
G37*
X117960000Y-67068000D02*
X118980000Y-67068000D01*
X118980000Y-68973000D01*
X117960000Y-68973000D01*
X117960000Y-67068000D01*
G36*
X120500000Y-70624000D02*
G01*
X121520000Y-70624000D01*
X121520000Y-72529000D01*
X120500000Y-72529000D01*
X120500000Y-70624000D01*
G37*
X120500000Y-70624000D02*
X121520000Y-70624000D01*
X121520000Y-72529000D01*
X120500000Y-72529000D01*
X120500000Y-70624000D01*
G36*
X148440000Y-67068000D02*
G01*
X149460000Y-67068000D01*
X149460000Y-68973000D01*
X148440000Y-68973000D01*
X148440000Y-67068000D01*
G37*
X148440000Y-67068000D02*
X149460000Y-67068000D01*
X149460000Y-68973000D01*
X148440000Y-68973000D01*
X148440000Y-67068000D01*
G36*
X138280000Y-67068000D02*
G01*
X139300000Y-67068000D01*
X139300000Y-68973000D01*
X138280000Y-68973000D01*
X138280000Y-67068000D01*
G37*
X138280000Y-67068000D02*
X139300000Y-67068000D01*
X139300000Y-68973000D01*
X138280000Y-68973000D01*
X138280000Y-67068000D01*
G36*
X128120000Y-67068000D02*
G01*
X129140000Y-67068000D01*
X129140000Y-68973000D01*
X128120000Y-68973000D01*
X128120000Y-67068000D01*
G37*
X128120000Y-67068000D02*
X129140000Y-67068000D01*
X129140000Y-68973000D01*
X128120000Y-68973000D01*
X128120000Y-67068000D01*
G36*
X133200000Y-67068000D02*
G01*
X134220000Y-67068000D01*
X134220000Y-68973000D01*
X133200000Y-68973000D01*
X133200000Y-67068000D01*
G37*
X133200000Y-67068000D02*
X134220000Y-67068000D01*
X134220000Y-68973000D01*
X133200000Y-68973000D01*
X133200000Y-67068000D01*
G36*
X110340000Y-70624000D02*
G01*
X111360000Y-70624000D01*
X111360000Y-72529000D01*
X110340000Y-72529000D01*
X110340000Y-70624000D01*
G37*
X110340000Y-70624000D02*
X111360000Y-70624000D01*
X111360000Y-72529000D01*
X110340000Y-72529000D01*
X110340000Y-70624000D01*
G36*
X123040000Y-67068000D02*
G01*
X124060000Y-67068000D01*
X124060000Y-68973000D01*
X123040000Y-68973000D01*
X123040000Y-67068000D01*
G37*
X123040000Y-67068000D02*
X124060000Y-67068000D01*
X124060000Y-68973000D01*
X123040000Y-68973000D01*
X123040000Y-67068000D01*
G36*
X145900000Y-70624000D02*
G01*
X146920000Y-70624000D01*
X146920000Y-72529000D01*
X145900000Y-72529000D01*
X145900000Y-70624000D01*
G37*
X145900000Y-70624000D02*
X146920000Y-70624000D01*
X146920000Y-72529000D01*
X145900000Y-72529000D01*
X145900000Y-70624000D01*
G36*
X143360000Y-67068000D02*
G01*
X144380000Y-67068000D01*
X144380000Y-68973000D01*
X143360000Y-68973000D01*
X143360000Y-67068000D01*
G37*
X143360000Y-67068000D02*
X144380000Y-67068000D01*
X144380000Y-68973000D01*
X143360000Y-68973000D01*
X143360000Y-67068000D01*
G36*
X140820000Y-70624000D02*
G01*
X141840000Y-70624000D01*
X141840000Y-72529000D01*
X140820000Y-72529000D01*
X140820000Y-70624000D01*
G37*
X140820000Y-70624000D02*
X141840000Y-70624000D01*
X141840000Y-72529000D01*
X140820000Y-72529000D01*
X140820000Y-70624000D01*
G36*
X107800000Y-67068000D02*
G01*
X108820000Y-67068000D01*
X108820000Y-68973000D01*
X107800000Y-68973000D01*
X107800000Y-67068000D01*
G37*
X107800000Y-67068000D02*
X108820000Y-67068000D01*
X108820000Y-68973000D01*
X107800000Y-68973000D01*
X107800000Y-67068000D01*
G36*
X135740000Y-70624000D02*
G01*
X136760000Y-70624000D01*
X136760000Y-72529000D01*
X135740000Y-72529000D01*
X135740000Y-70624000D01*
G37*
X135740000Y-70624000D02*
X136760000Y-70624000D01*
X136760000Y-72529000D01*
X135740000Y-72529000D01*
X135740000Y-70624000D01*
G36*
X112880000Y-67068000D02*
G01*
X113900000Y-67068000D01*
X113900000Y-68973000D01*
X112880000Y-68973000D01*
X112880000Y-67068000D01*
G37*
X112880000Y-67068000D02*
X113900000Y-67068000D01*
X113900000Y-68973000D01*
X112880000Y-68973000D01*
X112880000Y-67068000D01*
G36*
X130660000Y-70624000D02*
G01*
X131680000Y-70624000D01*
X131680000Y-72529000D01*
X130660000Y-72529000D01*
X130660000Y-70624000D01*
G37*
X130660000Y-70624000D02*
X131680000Y-70624000D01*
X131680000Y-72529000D01*
X130660000Y-72529000D01*
X130660000Y-70624000D01*
G36*
X125580000Y-70624000D02*
G01*
X126600000Y-70624000D01*
X126600000Y-72529000D01*
X125580000Y-72529000D01*
X125580000Y-70624000D01*
G37*
X125580000Y-70624000D02*
X126600000Y-70624000D01*
X126600000Y-72529000D01*
X125580000Y-72529000D01*
X125580000Y-70624000D01*
G36*
X115420000Y-70624000D02*
G01*
X116440000Y-70624000D01*
X116440000Y-72529000D01*
X115420000Y-72529000D01*
X115420000Y-70624000D01*
G37*
X115420000Y-70624000D02*
X116440000Y-70624000D01*
X116440000Y-72529000D01*
X115420000Y-72529000D01*
X115420000Y-70624000D01*
G36*
X95100000Y-70624000D02*
G01*
X96120000Y-70624000D01*
X96120000Y-72529000D01*
X95100000Y-72529000D01*
X95100000Y-70624000D01*
G37*
X95100000Y-70624000D02*
X96120000Y-70624000D01*
X96120000Y-72529000D01*
X95100000Y-72529000D01*
X95100000Y-70624000D01*
G36*
X90020000Y-70624000D02*
G01*
X91040000Y-70624000D01*
X91040000Y-72529000D01*
X90020000Y-72529000D01*
X90020000Y-70624000D01*
G37*
X90020000Y-70624000D02*
X91040000Y-70624000D01*
X91040000Y-72529000D01*
X90020000Y-72529000D01*
X90020000Y-70624000D01*
G36*
X105260000Y-70624000D02*
G01*
X106280000Y-70624000D01*
X106280000Y-72529000D01*
X105260000Y-72529000D01*
X105260000Y-70624000D01*
G37*
X105260000Y-70624000D02*
X106280000Y-70624000D01*
X106280000Y-72529000D01*
X105260000Y-72529000D01*
X105260000Y-70624000D01*
G36*
X92560000Y-67068000D02*
G01*
X93580000Y-67068000D01*
X93580000Y-68973000D01*
X92560000Y-68973000D01*
X92560000Y-67068000D01*
G37*
X92560000Y-67068000D02*
X93580000Y-67068000D01*
X93580000Y-68973000D01*
X92560000Y-68973000D01*
X92560000Y-67068000D01*
G36*
X102720000Y-67068000D02*
G01*
X103740000Y-67068000D01*
X103740000Y-68973000D01*
X102720000Y-68973000D01*
X102720000Y-67068000D01*
G37*
X102720000Y-67068000D02*
X103740000Y-67068000D01*
X103740000Y-68973000D01*
X102720000Y-68973000D01*
X102720000Y-67068000D01*
G36*
X100180000Y-70624000D02*
G01*
X101200000Y-70624000D01*
X101200000Y-72529000D01*
X100180000Y-72529000D01*
X100180000Y-70624000D01*
G37*
X100180000Y-70624000D02*
X101200000Y-70624000D01*
X101200000Y-72529000D01*
X100180000Y-72529000D01*
X100180000Y-70624000D01*
G36*
X97640000Y-67068000D02*
G01*
X98660000Y-67068000D01*
X98660000Y-68973000D01*
X97640000Y-68973000D01*
X97640000Y-67068000D01*
G37*
X97640000Y-67068000D02*
X98660000Y-67068000D01*
X98660000Y-68973000D01*
X97640000Y-68973000D01*
X97640000Y-67068000D01*
G36*
X148440000Y-82308000D02*
G01*
X149460000Y-82308000D01*
X149460000Y-84213000D01*
X148440000Y-84213000D01*
X148440000Y-82308000D01*
G37*
X148440000Y-82308000D02*
X149460000Y-82308000D01*
X149460000Y-84213000D01*
X148440000Y-84213000D01*
X148440000Y-82308000D01*
G36*
X145900000Y-85864000D02*
G01*
X146920000Y-85864000D01*
X146920000Y-87769000D01*
X145900000Y-87769000D01*
X145900000Y-85864000D01*
G37*
X145900000Y-85864000D02*
X146920000Y-85864000D01*
X146920000Y-87769000D01*
X145900000Y-87769000D01*
X145900000Y-85864000D01*
G36*
X143360000Y-82308000D02*
G01*
X144380000Y-82308000D01*
X144380000Y-84213000D01*
X143360000Y-84213000D01*
X143360000Y-82308000D01*
G37*
X143360000Y-82308000D02*
X144380000Y-82308000D01*
X144380000Y-84213000D01*
X143360000Y-84213000D01*
X143360000Y-82308000D01*
G36*
X140820000Y-85864000D02*
G01*
X141840000Y-85864000D01*
X141840000Y-87769000D01*
X140820000Y-87769000D01*
X140820000Y-85864000D01*
G37*
X140820000Y-85864000D02*
X141840000Y-85864000D01*
X141840000Y-87769000D01*
X140820000Y-87769000D01*
X140820000Y-85864000D01*
G36*
X138280000Y-82308000D02*
G01*
X139300000Y-82308000D01*
X139300000Y-84213000D01*
X138280000Y-84213000D01*
X138280000Y-82308000D01*
G37*
X138280000Y-82308000D02*
X139300000Y-82308000D01*
X139300000Y-84213000D01*
X138280000Y-84213000D01*
X138280000Y-82308000D01*
G36*
X135740000Y-85864000D02*
G01*
X136760000Y-85864000D01*
X136760000Y-87769000D01*
X135740000Y-87769000D01*
X135740000Y-85864000D01*
G37*
X135740000Y-85864000D02*
X136760000Y-85864000D01*
X136760000Y-87769000D01*
X135740000Y-87769000D01*
X135740000Y-85864000D01*
G36*
X133200000Y-82308000D02*
G01*
X134220000Y-82308000D01*
X134220000Y-84213000D01*
X133200000Y-84213000D01*
X133200000Y-82308000D01*
G37*
X133200000Y-82308000D02*
X134220000Y-82308000D01*
X134220000Y-84213000D01*
X133200000Y-84213000D01*
X133200000Y-82308000D01*
G36*
X130660000Y-85864000D02*
G01*
X131680000Y-85864000D01*
X131680000Y-87769000D01*
X130660000Y-87769000D01*
X130660000Y-85864000D01*
G37*
X130660000Y-85864000D02*
X131680000Y-85864000D01*
X131680000Y-87769000D01*
X130660000Y-87769000D01*
X130660000Y-85864000D01*
G36*
X128120000Y-82308000D02*
G01*
X129140000Y-82308000D01*
X129140000Y-84213000D01*
X128120000Y-84213000D01*
X128120000Y-82308000D01*
G37*
X128120000Y-82308000D02*
X129140000Y-82308000D01*
X129140000Y-84213000D01*
X128120000Y-84213000D01*
X128120000Y-82308000D01*
G36*
X125580000Y-85864000D02*
G01*
X126600000Y-85864000D01*
X126600000Y-87769000D01*
X125580000Y-87769000D01*
X125580000Y-85864000D01*
G37*
X125580000Y-85864000D02*
X126600000Y-85864000D01*
X126600000Y-87769000D01*
X125580000Y-87769000D01*
X125580000Y-85864000D01*
G36*
X123040000Y-82308000D02*
G01*
X124060000Y-82308000D01*
X124060000Y-84213000D01*
X123040000Y-84213000D01*
X123040000Y-82308000D01*
G37*
X123040000Y-82308000D02*
X124060000Y-82308000D01*
X124060000Y-84213000D01*
X123040000Y-84213000D01*
X123040000Y-82308000D01*
G36*
X120500000Y-85864000D02*
G01*
X121520000Y-85864000D01*
X121520000Y-87769000D01*
X120500000Y-87769000D01*
X120500000Y-85864000D01*
G37*
X120500000Y-85864000D02*
X121520000Y-85864000D01*
X121520000Y-87769000D01*
X120500000Y-87769000D01*
X120500000Y-85864000D01*
G36*
X117960000Y-82308000D02*
G01*
X118980000Y-82308000D01*
X118980000Y-84213000D01*
X117960000Y-84213000D01*
X117960000Y-82308000D01*
G37*
X117960000Y-82308000D02*
X118980000Y-82308000D01*
X118980000Y-84213000D01*
X117960000Y-84213000D01*
X117960000Y-82308000D01*
G36*
X115420000Y-85864000D02*
G01*
X116440000Y-85864000D01*
X116440000Y-87769000D01*
X115420000Y-87769000D01*
X115420000Y-85864000D01*
G37*
X115420000Y-85864000D02*
X116440000Y-85864000D01*
X116440000Y-87769000D01*
X115420000Y-87769000D01*
X115420000Y-85864000D01*
G36*
X112880000Y-82308000D02*
G01*
X113900000Y-82308000D01*
X113900000Y-84213000D01*
X112880000Y-84213000D01*
X112880000Y-82308000D01*
G37*
X112880000Y-82308000D02*
X113900000Y-82308000D01*
X113900000Y-84213000D01*
X112880000Y-84213000D01*
X112880000Y-82308000D01*
G36*
X110340000Y-85864000D02*
G01*
X111360000Y-85864000D01*
X111360000Y-87769000D01*
X110340000Y-87769000D01*
X110340000Y-85864000D01*
G37*
X110340000Y-85864000D02*
X111360000Y-85864000D01*
X111360000Y-87769000D01*
X110340000Y-87769000D01*
X110340000Y-85864000D01*
G36*
X107800000Y-82308000D02*
G01*
X108820000Y-82308000D01*
X108820000Y-84213000D01*
X107800000Y-84213000D01*
X107800000Y-82308000D01*
G37*
X107800000Y-82308000D02*
X108820000Y-82308000D01*
X108820000Y-84213000D01*
X107800000Y-84213000D01*
X107800000Y-82308000D01*
G36*
X105260000Y-85864000D02*
G01*
X106280000Y-85864000D01*
X106280000Y-87769000D01*
X105260000Y-87769000D01*
X105260000Y-85864000D01*
G37*
X105260000Y-85864000D02*
X106280000Y-85864000D01*
X106280000Y-87769000D01*
X105260000Y-87769000D01*
X105260000Y-85864000D01*
G36*
X102720000Y-82308000D02*
G01*
X103740000Y-82308000D01*
X103740000Y-84213000D01*
X102720000Y-84213000D01*
X102720000Y-82308000D01*
G37*
X102720000Y-82308000D02*
X103740000Y-82308000D01*
X103740000Y-84213000D01*
X102720000Y-84213000D01*
X102720000Y-82308000D01*
G36*
X100180000Y-85864000D02*
G01*
X101200000Y-85864000D01*
X101200000Y-87769000D01*
X100180000Y-87769000D01*
X100180000Y-85864000D01*
G37*
X100180000Y-85864000D02*
X101200000Y-85864000D01*
X101200000Y-87769000D01*
X100180000Y-87769000D01*
X100180000Y-85864000D01*
G36*
X97640000Y-82308000D02*
G01*
X98660000Y-82308000D01*
X98660000Y-84213000D01*
X97640000Y-84213000D01*
X97640000Y-82308000D01*
G37*
X97640000Y-82308000D02*
X98660000Y-82308000D01*
X98660000Y-84213000D01*
X97640000Y-84213000D01*
X97640000Y-82308000D01*
G36*
X95100000Y-85864000D02*
G01*
X96120000Y-85864000D01*
X96120000Y-87769000D01*
X95100000Y-87769000D01*
X95100000Y-85864000D01*
G37*
X95100000Y-85864000D02*
X96120000Y-85864000D01*
X96120000Y-87769000D01*
X95100000Y-87769000D01*
X95100000Y-85864000D01*
G36*
X92560000Y-82308000D02*
G01*
X93580000Y-82308000D01*
X93580000Y-84213000D01*
X92560000Y-84213000D01*
X92560000Y-82308000D01*
G37*
X92560000Y-82308000D02*
X93580000Y-82308000D01*
X93580000Y-84213000D01*
X92560000Y-84213000D01*
X92560000Y-82308000D01*
G36*
X90020000Y-85864000D02*
G01*
X91040000Y-85864000D01*
X91040000Y-87769000D01*
X90020000Y-87769000D01*
X90020000Y-85864000D01*
G37*
X90020000Y-85864000D02*
X91040000Y-85864000D01*
X91040000Y-87769000D01*
X90020000Y-87769000D01*
X90020000Y-85864000D01*
D11*
X100136500Y-100670200D02*
X100136500Y-99270000D01*
X100136500Y-99270000D02*
X97923500Y-99270000D01*
X97923500Y-99270000D02*
X97923500Y-100670200D01*
X97923500Y-100670200D02*
X100136500Y-100670200D01*
X100136500Y-99070000D02*
X100136500Y-97669800D01*
X100136500Y-97669800D02*
X97923500Y-97669800D01*
X97923500Y-97669800D02*
X97923500Y-99070000D01*
X97923500Y-99070000D02*
X100136500Y-99070000D01*
D12*
X136010156Y-75834400D03*
X136503678Y-75834400D03*
X134036068Y-75834400D03*
X134529590Y-75834400D03*
X135516634Y-75834400D03*
X134036068Y-74005600D03*
X135023112Y-75834400D03*
X134529590Y-74005600D03*
X135023112Y-74005600D03*
X135516634Y-74005600D03*
X136010156Y-74005600D03*
X136503678Y-74005600D03*
D13*
X137251200Y-74005600D03*
X133288800Y-74005600D03*
X133288800Y-75834400D03*
X137251200Y-75834400D03*
G36*
G01*
X142987500Y-121093750D02*
X142987500Y-121606250D01*
G75*
G02*
X142768750Y-121825000I-218750J0D01*
G01*
X142331250Y-121825000D01*
G75*
G02*
X142112500Y-121606250I0J218750D01*
G01*
X142112500Y-121093750D01*
G75*
G02*
X142331250Y-120875000I218750J0D01*
G01*
X142768750Y-120875000D01*
G75*
G02*
X142987500Y-121093750I0J-218750D01*
G01*
G37*
G36*
G01*
X144562500Y-121093750D02*
X144562500Y-121606250D01*
G75*
G02*
X144343750Y-121825000I-218750J0D01*
G01*
X143906250Y-121825000D01*
G75*
G02*
X143687500Y-121606250I0J218750D01*
G01*
X143687500Y-121093750D01*
G75*
G02*
X143906250Y-120875000I218750J0D01*
G01*
X144343750Y-120875000D01*
G75*
G02*
X144562500Y-121093750I0J-218750D01*
G01*
G37*
D14*
X125820000Y-98740000D03*
X125820000Y-93640000D03*
D15*
X136020000Y-96190000D03*
D14*
X125830000Y-115570000D03*
X125830000Y-110470000D03*
D15*
X136030000Y-113020000D03*
D14*
X125830000Y-148460000D03*
X125830000Y-143360000D03*
D15*
X136030000Y-145910000D03*
D14*
X125830000Y-131940000D03*
X125830000Y-126840000D03*
D15*
X136030000Y-129390000D03*
D16*
X87430000Y-123545000D03*
X87430000Y-128115000D03*
X90530000Y-125830000D03*
X80720000Y-128115000D03*
X83820000Y-125830000D03*
X80720000Y-123545000D03*
D17*
X148950000Y-83260000D03*
X146410000Y-86816000D03*
X143870000Y-83260000D03*
X141330000Y-86816000D03*
X138790000Y-83260000D03*
X136250000Y-86816000D03*
X133710000Y-83260000D03*
X131170000Y-86816000D03*
X128630000Y-83260000D03*
X126090000Y-86816000D03*
X123550000Y-83260000D03*
X121010000Y-86816000D03*
X118470000Y-83260000D03*
X115930000Y-86816000D03*
X113390000Y-83260000D03*
X110850000Y-86816000D03*
X108310000Y-83260000D03*
X105770000Y-86816000D03*
X103230000Y-83260000D03*
X100690000Y-86816000D03*
X98150000Y-83260000D03*
X95610000Y-86816000D03*
X93070000Y-83260000D03*
X90530000Y-86816000D03*
X100690000Y-71576000D03*
X118470000Y-68020000D03*
X128630000Y-68020000D03*
X133710000Y-68020000D03*
X143870000Y-68020000D03*
X146410000Y-71576000D03*
X113390000Y-68020000D03*
X95610000Y-71576000D03*
X103230000Y-68020000D03*
X108310000Y-68020000D03*
X110850000Y-71576000D03*
X123550000Y-68020000D03*
X136250000Y-71576000D03*
X126090000Y-71576000D03*
X138790000Y-68020000D03*
X90530000Y-71576000D03*
X105770000Y-71576000D03*
X93070000Y-68020000D03*
X98150000Y-68020000D03*
X115930000Y-71576000D03*
X131170000Y-71576000D03*
X141330000Y-71576000D03*
X148950000Y-68020000D03*
X121010000Y-71576000D03*
D18*
X90190000Y-79610000D03*
D19*
X90190000Y-77940000D03*
X90190000Y-78740000D03*
D18*
X90190000Y-77070000D03*
D19*
X88790000Y-78740000D03*
D18*
X88790000Y-79610000D03*
D19*
X88790000Y-77940000D03*
D18*
X88790000Y-77070000D03*
D16*
X65510000Y-106335000D03*
X65510000Y-110905000D03*
X68610000Y-108620000D03*
X58800000Y-110905000D03*
X61900000Y-108620000D03*
X58800000Y-106335000D03*
D20*
X135852500Y-55310000D03*
X78292500Y-55310000D03*
D21*
X135135000Y-63760000D03*
X133865000Y-63760000D03*
X132595000Y-63760000D03*
X131325000Y-63760000D03*
X130055000Y-63760000D03*
X128785000Y-63760000D03*
X127515000Y-63760000D03*
X126245000Y-63760000D03*
X119390000Y-63760000D03*
X118120000Y-63760000D03*
X116850000Y-63760000D03*
X115580000Y-63760000D03*
X114310000Y-63760000D03*
X113040000Y-63760000D03*
X111770000Y-63760000D03*
X110500000Y-63760000D03*
X103645000Y-63760000D03*
X102375000Y-63760000D03*
X101105000Y-63760000D03*
X99835000Y-63760000D03*
X98565000Y-63760000D03*
X97295000Y-63760000D03*
X96025000Y-63760000D03*
X94755000Y-63760000D03*
X87900000Y-63760000D03*
X86630000Y-63760000D03*
X85360000Y-63760000D03*
X84090000Y-63760000D03*
X82820000Y-63760000D03*
X81550000Y-63760000D03*
X80280000Y-63760000D03*
X79010000Y-63760000D03*
D22*
X109260000Y-74650000D03*
D23*
X107590000Y-74650000D03*
X108390000Y-74650000D03*
D22*
X106720000Y-74650000D03*
D23*
X108390000Y-76050000D03*
D22*
X109260000Y-76050000D03*
D23*
X107590000Y-76050000D03*
D22*
X106720000Y-76050000D03*
G36*
G01*
X62160000Y-142003600D02*
X62160000Y-147856400D01*
G75*
G02*
X61986400Y-148030000I-173600J0D01*
G01*
X55033600Y-148030000D01*
G75*
G02*
X54860000Y-147856400I0J173600D01*
G01*
X54860000Y-142003600D01*
G75*
G02*
X55033600Y-141830000I173600J0D01*
G01*
X61986400Y-141830000D01*
G75*
G02*
X62160000Y-142003600I0J-173600D01*
G01*
G37*
G36*
G01*
X75260000Y-142003600D02*
X75260000Y-147856400D01*
G75*
G02*
X75086400Y-148030000I-173600J0D01*
G01*
X68133600Y-148030000D01*
G75*
G02*
X67960000Y-147856400I0J173600D01*
G01*
X67960000Y-142003600D01*
G75*
G02*
X68133600Y-141830000I173600J0D01*
G01*
X75086400Y-141830000D01*
G75*
G02*
X75260000Y-142003600I0J-173600D01*
G01*
G37*
G36*
G01*
X62170000Y-122433600D02*
X62170000Y-128286400D01*
G75*
G02*
X61996400Y-128460000I-173600J0D01*
G01*
X55043600Y-128460000D01*
G75*
G02*
X54870000Y-128286400I0J173600D01*
G01*
X54870000Y-122433600D01*
G75*
G02*
X55043600Y-122260000I173600J0D01*
G01*
X61996400Y-122260000D01*
G75*
G02*
X62170000Y-122433600I0J-173600D01*
G01*
G37*
G36*
G01*
X75270000Y-122433600D02*
X75270000Y-128286400D01*
G75*
G02*
X75096400Y-128460000I-173600J0D01*
G01*
X68143600Y-128460000D01*
G75*
G02*
X67970000Y-128286400I0J173600D01*
G01*
X67970000Y-122433600D01*
G75*
G02*
X68143600Y-122260000I173600J0D01*
G01*
X75096400Y-122260000D01*
G75*
G02*
X75270000Y-122433600I0J-173600D01*
G01*
G37*
G36*
G01*
X85910000Y-108226400D02*
X85910000Y-102373600D01*
G75*
G02*
X86083600Y-102200000I173600J0D01*
G01*
X93036400Y-102200000D01*
G75*
G02*
X93210000Y-102373600I0J-173600D01*
G01*
X93210000Y-108226400D01*
G75*
G02*
X93036400Y-108400000I-173600J0D01*
G01*
X86083600Y-108400000D01*
G75*
G02*
X85910000Y-108226400I0J173600D01*
G01*
G37*
G36*
G01*
X72810000Y-108226400D02*
X72810000Y-102373600D01*
G75*
G02*
X72983600Y-102200000I173600J0D01*
G01*
X79936400Y-102200000D01*
G75*
G02*
X80110000Y-102373600I0J-173600D01*
G01*
X80110000Y-108226400D01*
G75*
G02*
X79936400Y-108400000I-173600J0D01*
G01*
X72983600Y-108400000D01*
G75*
G02*
X72810000Y-108226400I0J173600D01*
G01*
G37*
D24*
X83750000Y-86410000D03*
X78670000Y-86410000D03*
X73590000Y-86410000D03*
X68510000Y-86410000D03*
X86290000Y-89720000D03*
X81210000Y-89720000D03*
X76130000Y-89720000D03*
X71050000Y-89720000D03*
G36*
G01*
X105485000Y-107850000D02*
X105485000Y-108150000D01*
G75*
G02*
X105335000Y-108300000I-150000J0D01*
G01*
X103685000Y-108300000D01*
G75*
G02*
X103535000Y-108150000I0J150000D01*
G01*
X103535000Y-107850000D01*
G75*
G02*
X103685000Y-107700000I150000J0D01*
G01*
X105335000Y-107700000D01*
G75*
G02*
X105485000Y-107850000I0J-150000D01*
G01*
G37*
G36*
G01*
X105485000Y-106580000D02*
X105485000Y-106880000D01*
G75*
G02*
X105335000Y-107030000I-150000J0D01*
G01*
X103685000Y-107030000D01*
G75*
G02*
X103535000Y-106880000I0J150000D01*
G01*
X103535000Y-106580000D01*
G75*
G02*
X103685000Y-106430000I150000J0D01*
G01*
X105335000Y-106430000D01*
G75*
G02*
X105485000Y-106580000I0J-150000D01*
G01*
G37*
G36*
G01*
X105485000Y-105310000D02*
X105485000Y-105610000D01*
G75*
G02*
X105335000Y-105760000I-150000J0D01*
G01*
X103685000Y-105760000D01*
G75*
G02*
X103535000Y-105610000I0J150000D01*
G01*
X103535000Y-105310000D01*
G75*
G02*
X103685000Y-105160000I150000J0D01*
G01*
X105335000Y-105160000D01*
G75*
G02*
X105485000Y-105310000I0J-150000D01*
G01*
G37*
G36*
G01*
X105485000Y-104040000D02*
X105485000Y-104340000D01*
G75*
G02*
X105335000Y-104490000I-150000J0D01*
G01*
X103685000Y-104490000D01*
G75*
G02*
X103535000Y-104340000I0J150000D01*
G01*
X103535000Y-104040000D01*
G75*
G02*
X103685000Y-103890000I150000J0D01*
G01*
X105335000Y-103890000D01*
G75*
G02*
X105485000Y-104040000I0J-150000D01*
G01*
G37*
G36*
G01*
X110435000Y-104040000D02*
X110435000Y-104340000D01*
G75*
G02*
X110285000Y-104490000I-150000J0D01*
G01*
X108635000Y-104490000D01*
G75*
G02*
X108485000Y-104340000I0J150000D01*
G01*
X108485000Y-104040000D01*
G75*
G02*
X108635000Y-103890000I150000J0D01*
G01*
X110285000Y-103890000D01*
G75*
G02*
X110435000Y-104040000I0J-150000D01*
G01*
G37*
G36*
G01*
X110435000Y-105310000D02*
X110435000Y-105610000D01*
G75*
G02*
X110285000Y-105760000I-150000J0D01*
G01*
X108635000Y-105760000D01*
G75*
G02*
X108485000Y-105610000I0J150000D01*
G01*
X108485000Y-105310000D01*
G75*
G02*
X108635000Y-105160000I150000J0D01*
G01*
X110285000Y-105160000D01*
G75*
G02*
X110435000Y-105310000I0J-150000D01*
G01*
G37*
G36*
G01*
X110435000Y-106580000D02*
X110435000Y-106880000D01*
G75*
G02*
X110285000Y-107030000I-150000J0D01*
G01*
X108635000Y-107030000D01*
G75*
G02*
X108485000Y-106880000I0J150000D01*
G01*
X108485000Y-106580000D01*
G75*
G02*
X108635000Y-106430000I150000J0D01*
G01*
X110285000Y-106430000D01*
G75*
G02*
X110435000Y-106580000I0J-150000D01*
G01*
G37*
G36*
G01*
X110435000Y-107850000D02*
X110435000Y-108150000D01*
G75*
G02*
X110285000Y-108300000I-150000J0D01*
G01*
X108635000Y-108300000D01*
G75*
G02*
X108485000Y-108150000I0J150000D01*
G01*
X108485000Y-107850000D01*
G75*
G02*
X108635000Y-107700000I150000J0D01*
G01*
X110285000Y-107700000D01*
G75*
G02*
X110435000Y-107850000I0J-150000D01*
G01*
G37*
D25*
X118580000Y-94700000D03*
X118080000Y-94700000D03*
X117580000Y-94700000D03*
X117080000Y-94700000D03*
X116580000Y-94700000D03*
X116580000Y-99000000D03*
X117080000Y-99000000D03*
X117580000Y-99000000D03*
X118080000Y-99000000D03*
X118580000Y-99000000D03*
D26*
X117960000Y-92270000D03*
X116740000Y-92270000D03*
D27*
X60135000Y-81020000D03*
X60135000Y-75940000D03*
X56825000Y-78480000D03*
D28*
X93250000Y-80830000D03*
X93900000Y-80830000D03*
X94550000Y-80830000D03*
X95200000Y-80830000D03*
X95850000Y-80830000D03*
X96500000Y-80830000D03*
X97150000Y-80830000D03*
X97150000Y-75090000D03*
X96500000Y-75090000D03*
X95850000Y-75090000D03*
X95200000Y-75090000D03*
X94550000Y-75090000D03*
X93900000Y-75090000D03*
X93250000Y-75090000D03*
G36*
G01*
X78445000Y-148175000D02*
X77195000Y-148175000D01*
G75*
G02*
X76945000Y-147925000I0J250000D01*
G01*
X76945000Y-147175000D01*
G75*
G02*
X77195000Y-146925000I250000J0D01*
G01*
X78445000Y-146925000D01*
G75*
G02*
X78695000Y-147175000I0J-250000D01*
G01*
X78695000Y-147925000D01*
G75*
G02*
X78445000Y-148175000I-250000J0D01*
G01*
G37*
G36*
G01*
X78445000Y-150975000D02*
X77195000Y-150975000D01*
G75*
G02*
X76945000Y-150725000I0J250000D01*
G01*
X76945000Y-149975000D01*
G75*
G02*
X77195000Y-149725000I250000J0D01*
G01*
X78445000Y-149725000D01*
G75*
G02*
X78695000Y-149975000I0J-250000D01*
G01*
X78695000Y-150725000D01*
G75*
G02*
X78445000Y-150975000I-250000J0D01*
G01*
G37*
G36*
G01*
X58915000Y-84615000D02*
X58915000Y-83365000D01*
G75*
G02*
X59165000Y-83115000I250000J0D01*
G01*
X59915000Y-83115000D01*
G75*
G02*
X60165000Y-83365000I0J-250000D01*
G01*
X60165000Y-84615000D01*
G75*
G02*
X59915000Y-84865000I-250000J0D01*
G01*
X59165000Y-84865000D01*
G75*
G02*
X58915000Y-84615000I0J250000D01*
G01*
G37*
G36*
G01*
X56115000Y-84615000D02*
X56115000Y-83365000D01*
G75*
G02*
X56365000Y-83115000I250000J0D01*
G01*
X57115000Y-83115000D01*
G75*
G02*
X57365000Y-83365000I0J-250000D01*
G01*
X57365000Y-84615000D01*
G75*
G02*
X57115000Y-84865000I-250000J0D01*
G01*
X56365000Y-84865000D01*
G75*
G02*
X56115000Y-84615000I0J250000D01*
G01*
G37*
G36*
G01*
X80115000Y-92455000D02*
X80115000Y-93705000D01*
G75*
G02*
X79865000Y-93955000I-250000J0D01*
G01*
X79115000Y-93955000D01*
G75*
G02*
X78865000Y-93705000I0J250000D01*
G01*
X78865000Y-92455000D01*
G75*
G02*
X79115000Y-92205000I250000J0D01*
G01*
X79865000Y-92205000D01*
G75*
G02*
X80115000Y-92455000I0J-250000D01*
G01*
G37*
G36*
G01*
X82915000Y-92455000D02*
X82915000Y-93705000D01*
G75*
G02*
X82665000Y-93955000I-250000J0D01*
G01*
X81915000Y-93955000D01*
G75*
G02*
X81665000Y-93705000I0J250000D01*
G01*
X81665000Y-92455000D01*
G75*
G02*
X81915000Y-92205000I250000J0D01*
G01*
X82665000Y-92205000D01*
G75*
G02*
X82915000Y-92455000I0J-250000D01*
G01*
G37*
D29*
X110030000Y-93260000D03*
X110030000Y-92040000D03*
D26*
X96980000Y-103440000D03*
X98200000Y-103440000D03*
D29*
X104020000Y-77690000D03*
X104020000Y-76470000D03*
G36*
G01*
X86002500Y-85073750D02*
X86002500Y-85586250D01*
G75*
G02*
X85783750Y-85805000I-218750J0D01*
G01*
X85346250Y-85805000D01*
G75*
G02*
X85127500Y-85586250I0J218750D01*
G01*
X85127500Y-85073750D01*
G75*
G02*
X85346250Y-84855000I218750J0D01*
G01*
X85783750Y-84855000D01*
G75*
G02*
X86002500Y-85073750I0J-218750D01*
G01*
G37*
G36*
G01*
X87577500Y-85073750D02*
X87577500Y-85586250D01*
G75*
G02*
X87358750Y-85805000I-218750J0D01*
G01*
X86921250Y-85805000D01*
G75*
G02*
X86702500Y-85586250I0J218750D01*
G01*
X86702500Y-85073750D01*
G75*
G02*
X86921250Y-84855000I218750J0D01*
G01*
X87358750Y-84855000D01*
G75*
G02*
X87577500Y-85073750I0J-218750D01*
G01*
G37*
G36*
G01*
X75057500Y-92073750D02*
X75057500Y-92586250D01*
G75*
G02*
X74838750Y-92805000I-218750J0D01*
G01*
X74401250Y-92805000D01*
G75*
G02*
X74182500Y-92586250I0J218750D01*
G01*
X74182500Y-92073750D01*
G75*
G02*
X74401250Y-91855000I218750J0D01*
G01*
X74838750Y-91855000D01*
G75*
G02*
X75057500Y-92073750I0J-218750D01*
G01*
G37*
G36*
G01*
X76632500Y-92073750D02*
X76632500Y-92586250D01*
G75*
G02*
X76413750Y-92805000I-218750J0D01*
G01*
X75976250Y-92805000D01*
G75*
G02*
X75757500Y-92586250I0J218750D01*
G01*
X75757500Y-92073750D01*
G75*
G02*
X75976250Y-91855000I218750J0D01*
G01*
X76413750Y-91855000D01*
G75*
G02*
X76632500Y-92073750I0J-218750D01*
G01*
G37*
D30*
X116320000Y-115420000D03*
X112383000Y-115420000D03*
D31*
X98510000Y-80720000D03*
X100610000Y-80720000D03*
G36*
G01*
X92035000Y-64455000D02*
X92035000Y-63205000D01*
G75*
G02*
X92285000Y-62955000I250000J0D01*
G01*
X93035000Y-62955000D01*
G75*
G02*
X93285000Y-63205000I0J-250000D01*
G01*
X93285000Y-64455000D01*
G75*
G02*
X93035000Y-64705000I-250000J0D01*
G01*
X92285000Y-64705000D01*
G75*
G02*
X92035000Y-64455000I0J250000D01*
G01*
G37*
G36*
G01*
X89235000Y-64455000D02*
X89235000Y-63205000D01*
G75*
G02*
X89485000Y-62955000I250000J0D01*
G01*
X90235000Y-62955000D01*
G75*
G02*
X90485000Y-63205000I0J-250000D01*
G01*
X90485000Y-64455000D01*
G75*
G02*
X90235000Y-64705000I-250000J0D01*
G01*
X89485000Y-64705000D01*
G75*
G02*
X89235000Y-64455000I0J250000D01*
G01*
G37*
D32*
X140780000Y-104610000D03*
X151480000Y-104610000D03*
G36*
G01*
X61255001Y-76895000D02*
X59104999Y-76895000D01*
G75*
G02*
X58855000Y-76645001I0J249999D01*
G01*
X58855000Y-75794999D01*
G75*
G02*
X59104999Y-75545000I249999J0D01*
G01*
X61255001Y-75545000D01*
G75*
G02*
X61505000Y-75794999I0J-249999D01*
G01*
X61505000Y-76645001D01*
G75*
G02*
X61255001Y-76895000I-249999J0D01*
G01*
G37*
G36*
G01*
X61255001Y-81395000D02*
X59104999Y-81395000D01*
G75*
G02*
X58855000Y-81145001I0J249999D01*
G01*
X58855000Y-80294999D01*
G75*
G02*
X59104999Y-80045000I249999J0D01*
G01*
X61255001Y-80045000D01*
G75*
G02*
X61505000Y-80294999I0J-249999D01*
G01*
X61505000Y-81145001D01*
G75*
G02*
X61255001Y-81395000I-249999J0D01*
G01*
G37*
G36*
G01*
X105675000Y-92705000D02*
X107825000Y-92705000D01*
G75*
G02*
X108075000Y-92955000I0J-250000D01*
G01*
X108075000Y-93705000D01*
G75*
G02*
X107825000Y-93955000I-250000J0D01*
G01*
X105675000Y-93955000D01*
G75*
G02*
X105425000Y-93705000I0J250000D01*
G01*
X105425000Y-92955000D01*
G75*
G02*
X105675000Y-92705000I250000J0D01*
G01*
G37*
G36*
G01*
X105675000Y-89905000D02*
X107825000Y-89905000D01*
G75*
G02*
X108075000Y-90155000I0J-250000D01*
G01*
X108075000Y-90905000D01*
G75*
G02*
X107825000Y-91155000I-250000J0D01*
G01*
X105675000Y-91155000D01*
G75*
G02*
X105425000Y-90905000I0J250000D01*
G01*
X105425000Y-90155000D01*
G75*
G02*
X105675000Y-89905000I250000J0D01*
G01*
G37*
G36*
G01*
X93955000Y-95045000D02*
X96105000Y-95045000D01*
G75*
G02*
X96355000Y-95295000I0J-250000D01*
G01*
X96355000Y-96045000D01*
G75*
G02*
X96105000Y-96295000I-250000J0D01*
G01*
X93955000Y-96295000D01*
G75*
G02*
X93705000Y-96045000I0J250000D01*
G01*
X93705000Y-95295000D01*
G75*
G02*
X93955000Y-95045000I250000J0D01*
G01*
G37*
G36*
G01*
X93955000Y-92245000D02*
X96105000Y-92245000D01*
G75*
G02*
X96355000Y-92495000I0J-250000D01*
G01*
X96355000Y-93245000D01*
G75*
G02*
X96105000Y-93495000I-250000J0D01*
G01*
X93955000Y-93495000D01*
G75*
G02*
X93705000Y-93245000I0J250000D01*
G01*
X93705000Y-92495000D01*
G75*
G02*
X93955000Y-92245000I250000J0D01*
G01*
G37*
D33*
X146840003Y-91919600D03*
X146340001Y-91919600D03*
X145840002Y-91919600D03*
X145340001Y-91919600D03*
X144840001Y-91919600D03*
X144340003Y-91919600D03*
X143840001Y-91919600D03*
X143340002Y-91919600D03*
X143339999Y-93210000D03*
X143840001Y-93210000D03*
X144340000Y-93210000D03*
X144840001Y-93210000D03*
X145340001Y-93210000D03*
X145839999Y-93210000D03*
X146340001Y-93210000D03*
X146840000Y-93210000D03*
D34*
X101790000Y-108674400D03*
D35*
X100520000Y-111570000D03*
D34*
X99250000Y-108674400D03*
D24*
X144450000Y-168945000D03*
X139370000Y-168945000D03*
X141910000Y-172255000D03*
D27*
X59210000Y-170220000D03*
X59210000Y-165140000D03*
X59210000Y-160060000D03*
X55900000Y-167680000D03*
X55900000Y-162600000D03*
D36*
X102500000Y-172700000D03*
X111360000Y-172700000D03*
X106930000Y-152810000D03*
X102500000Y-152810000D03*
X111360000Y-152810000D03*
D37*
X101697000Y-101075000D03*
X101697000Y-99805000D03*
X101697000Y-98535000D03*
X101697000Y-97265000D03*
X96363000Y-97265000D03*
X96363000Y-98535000D03*
X96363000Y-99805000D03*
X96363000Y-101075000D03*
D38*
X99030000Y-99170000D03*
D39*
X114970000Y-92340000D03*
X114970000Y-94240000D03*
X112350000Y-94240000D03*
X112350000Y-93290000D03*
X112350000Y-92340000D03*
D40*
X110730000Y-124080000D03*
X105880000Y-129630000D03*
X110730000Y-129630000D03*
X105880000Y-124080000D03*
D41*
X117455000Y-124315000D03*
X117455000Y-129395000D03*
D36*
X114490000Y-172700000D03*
X123350000Y-172700000D03*
X118920000Y-152810000D03*
X114490000Y-152810000D03*
X123350000Y-152810000D03*
D32*
X128850000Y-79850000D03*
X118150000Y-79850000D03*
D42*
X131860000Y-79860000D03*
X131860000Y-78560000D03*
X133760000Y-79210000D03*
X131860000Y-79210000D03*
X133760000Y-78560000D03*
X133760000Y-79860000D03*
X105250000Y-79810000D03*
X105250000Y-81110000D03*
X103350000Y-80460000D03*
X105250000Y-80460000D03*
X103350000Y-81110000D03*
X103350000Y-79810000D03*
D43*
X132500000Y-164020000D03*
X132500000Y-173020000D03*
G36*
G01*
X87605000Y-148175000D02*
X86355000Y-148175000D01*
G75*
G02*
X86105000Y-147925000I0J250000D01*
G01*
X86105000Y-147175000D01*
G75*
G02*
X86355000Y-146925000I250000J0D01*
G01*
X87605000Y-146925000D01*
G75*
G02*
X87855000Y-147175000I0J-250000D01*
G01*
X87855000Y-147925000D01*
G75*
G02*
X87605000Y-148175000I-250000J0D01*
G01*
G37*
G36*
G01*
X87605000Y-150975000D02*
X86355000Y-150975000D01*
G75*
G02*
X86105000Y-150725000I0J250000D01*
G01*
X86105000Y-149975000D01*
G75*
G02*
X86355000Y-149725000I250000J0D01*
G01*
X87605000Y-149725000D01*
G75*
G02*
X87855000Y-149975000I0J-250000D01*
G01*
X87855000Y-150725000D01*
G75*
G02*
X87605000Y-150975000I-250000J0D01*
G01*
G37*
D24*
X60180000Y-51630000D03*
X55100000Y-51630000D03*
X62720000Y-54940000D03*
X57640000Y-54940000D03*
D36*
X90500000Y-172700000D03*
X99360000Y-172700000D03*
X94930000Y-152810000D03*
X90500000Y-152810000D03*
X99360000Y-152810000D03*
X78500000Y-172700000D03*
X87360000Y-172700000D03*
X82930000Y-152810000D03*
X78500000Y-152810000D03*
X87360000Y-152810000D03*
G36*
G01*
X114682500Y-133023750D02*
X114682500Y-133536250D01*
G75*
G02*
X114463750Y-133755000I-218750J0D01*
G01*
X114026250Y-133755000D01*
G75*
G02*
X113807500Y-133536250I0J218750D01*
G01*
X113807500Y-133023750D01*
G75*
G02*
X114026250Y-132805000I218750J0D01*
G01*
X114463750Y-132805000D01*
G75*
G02*
X114682500Y-133023750I0J-218750D01*
G01*
G37*
G36*
G01*
X116257500Y-133023750D02*
X116257500Y-133536250D01*
G75*
G02*
X116038750Y-133755000I-218750J0D01*
G01*
X115601250Y-133755000D01*
G75*
G02*
X115382500Y-133536250I0J218750D01*
G01*
X115382500Y-133023750D01*
G75*
G02*
X115601250Y-132805000I218750J0D01*
G01*
X116038750Y-132805000D01*
G75*
G02*
X116257500Y-133023750I0J-218750D01*
G01*
G37*
D34*
X112200000Y-109220000D03*
D35*
X113470000Y-106324400D03*
D34*
X114740000Y-109220000D03*
G36*
G01*
X70825000Y-94215000D02*
X70825000Y-92065000D01*
G75*
G02*
X71075000Y-91815000I250000J0D01*
G01*
X71825000Y-91815000D01*
G75*
G02*
X72075000Y-92065000I0J-250000D01*
G01*
X72075000Y-94215000D01*
G75*
G02*
X71825000Y-94465000I-250000J0D01*
G01*
X71075000Y-94465000D01*
G75*
G02*
X70825000Y-94215000I0J250000D01*
G01*
G37*
G36*
G01*
X68025000Y-94215000D02*
X68025000Y-92065000D01*
G75*
G02*
X68275000Y-91815000I250000J0D01*
G01*
X69025000Y-91815000D01*
G75*
G02*
X69275000Y-92065000I0J-250000D01*
G01*
X69275000Y-94215000D01*
G75*
G02*
X69025000Y-94465000I-250000J0D01*
G01*
X68275000Y-94465000D01*
G75*
G02*
X68025000Y-94215000I0J250000D01*
G01*
G37*
D42*
X137890000Y-78460000D03*
X137890000Y-79760000D03*
X135990000Y-79110000D03*
X137890000Y-79110000D03*
X135990000Y-79760000D03*
X135990000Y-78460000D03*
D29*
X91110000Y-75090000D03*
X91110000Y-73870000D03*
G36*
G01*
X107082500Y-109816250D02*
X107082500Y-109303750D01*
G75*
G02*
X107301250Y-109085000I218750J0D01*
G01*
X107738750Y-109085000D01*
G75*
G02*
X107957500Y-109303750I0J-218750D01*
G01*
X107957500Y-109816250D01*
G75*
G02*
X107738750Y-110035000I-218750J0D01*
G01*
X107301250Y-110035000D01*
G75*
G02*
X107082500Y-109816250I0J218750D01*
G01*
G37*
G36*
G01*
X105507500Y-109816250D02*
X105507500Y-109303750D01*
G75*
G02*
X105726250Y-109085000I218750J0D01*
G01*
X106163750Y-109085000D01*
G75*
G02*
X106382500Y-109303750I0J-218750D01*
G01*
X106382500Y-109816250D01*
G75*
G02*
X106163750Y-110035000I-218750J0D01*
G01*
X105726250Y-110035000D01*
G75*
G02*
X105507500Y-109816250I0J218750D01*
G01*
G37*
X112230000Y-102720000D03*
X112230000Y-103940000D03*
D26*
X102540000Y-106070000D03*
X101320000Y-106070000D03*
G36*
G01*
X84895000Y-92485000D02*
X84895000Y-93735000D01*
G75*
G02*
X84645000Y-93985000I-250000J0D01*
G01*
X83895000Y-93985000D01*
G75*
G02*
X83645000Y-93735000I0J250000D01*
G01*
X83645000Y-92485000D01*
G75*
G02*
X83895000Y-92235000I250000J0D01*
G01*
X84645000Y-92235000D01*
G75*
G02*
X84895000Y-92485000I0J-250000D01*
G01*
G37*
G36*
G01*
X87695000Y-92485000D02*
X87695000Y-93735000D01*
G75*
G02*
X87445000Y-93985000I-250000J0D01*
G01*
X86695000Y-93985000D01*
G75*
G02*
X86445000Y-93735000I0J250000D01*
G01*
X86445000Y-92485000D01*
G75*
G02*
X86695000Y-92235000I250000J0D01*
G01*
X87445000Y-92235000D01*
G75*
G02*
X87695000Y-92485000I0J-250000D01*
G01*
G37*
G36*
G01*
X85315000Y-148175000D02*
X84065000Y-148175000D01*
G75*
G02*
X83815000Y-147925000I0J250000D01*
G01*
X83815000Y-147175000D01*
G75*
G02*
X84065000Y-146925000I250000J0D01*
G01*
X85315000Y-146925000D01*
G75*
G02*
X85565000Y-147175000I0J-250000D01*
G01*
X85565000Y-147925000D01*
G75*
G02*
X85315000Y-148175000I-250000J0D01*
G01*
G37*
G36*
G01*
X85315000Y-150975000D02*
X84065000Y-150975000D01*
G75*
G02*
X83815000Y-150725000I0J250000D01*
G01*
X83815000Y-149975000D01*
G75*
G02*
X84065000Y-149725000I250000J0D01*
G01*
X85315000Y-149725000D01*
G75*
G02*
X85565000Y-149975000I0J-250000D01*
G01*
X85565000Y-150725000D01*
G75*
G02*
X85315000Y-150975000I-250000J0D01*
G01*
G37*
G36*
G01*
X83025000Y-148175000D02*
X81775000Y-148175000D01*
G75*
G02*
X81525000Y-147925000I0J250000D01*
G01*
X81525000Y-147175000D01*
G75*
G02*
X81775000Y-146925000I250000J0D01*
G01*
X83025000Y-146925000D01*
G75*
G02*
X83275000Y-147175000I0J-250000D01*
G01*
X83275000Y-147925000D01*
G75*
G02*
X83025000Y-148175000I-250000J0D01*
G01*
G37*
G36*
G01*
X83025000Y-150975000D02*
X81775000Y-150975000D01*
G75*
G02*
X81525000Y-150725000I0J250000D01*
G01*
X81525000Y-149975000D01*
G75*
G02*
X81775000Y-149725000I250000J0D01*
G01*
X83025000Y-149725000D01*
G75*
G02*
X83275000Y-149975000I0J-250000D01*
G01*
X83275000Y-150725000D01*
G75*
G02*
X83025000Y-150975000I-250000J0D01*
G01*
G37*
G36*
G01*
X80735000Y-148175000D02*
X79485000Y-148175000D01*
G75*
G02*
X79235000Y-147925000I0J250000D01*
G01*
X79235000Y-147175000D01*
G75*
G02*
X79485000Y-146925000I250000J0D01*
G01*
X80735000Y-146925000D01*
G75*
G02*
X80985000Y-147175000I0J-250000D01*
G01*
X80985000Y-147925000D01*
G75*
G02*
X80735000Y-148175000I-250000J0D01*
G01*
G37*
G36*
G01*
X80735000Y-150975000D02*
X79485000Y-150975000D01*
G75*
G02*
X79235000Y-150725000I0J250000D01*
G01*
X79235000Y-149975000D01*
G75*
G02*
X79485000Y-149725000I250000J0D01*
G01*
X80735000Y-149725000D01*
G75*
G02*
X80985000Y-149975000I0J-250000D01*
G01*
X80985000Y-150725000D01*
G75*
G02*
X80735000Y-150975000I-250000J0D01*
G01*
G37*
M02*
