G04 #@! TF.GenerationSoftware,KiCad,Pcbnew,(5.1.6)-1*
G04 #@! TF.CreationDate,2021-06-09T19:53:26-07:00*
G04 #@! TF.ProjectId,Four Channel MHz LED Driver - high current,466f7572-2043-4686-916e-6e656c204d48,rev?*
G04 #@! TF.SameCoordinates,Original*
G04 #@! TF.FileFunction,Soldermask,Top*
G04 #@! TF.FilePolarity,Negative*
%FSLAX46Y46*%
G04 Gerber Fmt 4.6, Leading zero omitted, Abs format (unit mm)*
G04 Created by KiCad (PCBNEW (5.1.6)-1) date 2021-06-09 19:53:26*
%MOMM*%
%LPD*%
G01*
G04 APERTURE LIST*
%ADD10C,0.100000*%
%ADD11C,0.010000*%
%ADD12R,0.390000X0.887400*%
%ADD13R,0.900000X0.887400*%
%ADD14R,3.900000X2.100000*%
%ADD15R,11.500000X12.800000*%
%ADD16C,8.100000*%
%ADD17R,3.100000X1.750000*%
%ADD18C,1.290000*%
%ADD19R,0.800000X0.740000*%
%ADD20R,0.800000X0.600000*%
%ADD21C,2.790000*%
%ADD22R,6.320000X3.280000*%
%ADD23R,0.660000X2.640000*%
%ADD24R,0.740000X0.800000*%
%ADD25R,0.600000X0.800000*%
%ADD26R,1.100000X2.610000*%
%ADD27R,0.380000X1.570000*%
%ADD28R,1.000000X2.270000*%
%ADD29R,2.610000X1.100000*%
%ADD30R,0.510000X1.670000*%
%ADD31R,2.270000X1.000000*%
%ADD32R,2.055800X2.259000*%
%ADD33R,0.700000X0.550000*%
%ADD34R,2.700000X2.900000*%
%ADD35R,0.354000X0.785800*%
%ADD36R,1.370000X1.649400*%
%ADD37R,2.106600X1.649400*%
%ADD38C,1.300000*%
%ADD39R,2.100000X2.100000*%
%ADD40R,1.471600X0.582600*%
%ADD41R,2.513000X3.300400*%
%ADD42R,1.320000X0.750000*%
%ADD43R,9.500000X10.900000*%
%ADD44R,4.700000X1.200000*%
%ADD45R,0.750000X0.500000*%
%ADD46R,3.600000X1.600000*%
G04 APERTURE END LIST*
D10*
X92446000Y-69798000D02*
G75*
G03*
X92446000Y-69798000I-646000J0D01*
G01*
D11*
G36*
X120449000Y-70573000D02*
G01*
X121571000Y-70573000D01*
X121571000Y-72580000D01*
X120449000Y-72580000D01*
X120449000Y-70573000D01*
G37*
X120449000Y-70573000D02*
X121571000Y-70573000D01*
X121571000Y-72580000D01*
X120449000Y-72580000D01*
X120449000Y-70573000D01*
G36*
X145849000Y-70573000D02*
G01*
X146971000Y-70573000D01*
X146971000Y-72580000D01*
X145849000Y-72580000D01*
X145849000Y-70573000D01*
G37*
X145849000Y-70573000D02*
X146971000Y-70573000D01*
X146971000Y-72580000D01*
X145849000Y-72580000D01*
X145849000Y-70573000D01*
G36*
X143309000Y-67017000D02*
G01*
X144431000Y-67017000D01*
X144431000Y-69024000D01*
X143309000Y-69024000D01*
X143309000Y-67017000D01*
G37*
X143309000Y-67017000D02*
X144431000Y-67017000D01*
X144431000Y-69024000D01*
X143309000Y-69024000D01*
X143309000Y-67017000D01*
G36*
X130609000Y-70573000D02*
G01*
X131731000Y-70573000D01*
X131731000Y-72580000D01*
X130609000Y-72580000D01*
X130609000Y-70573000D01*
G37*
X130609000Y-70573000D02*
X131731000Y-70573000D01*
X131731000Y-72580000D01*
X130609000Y-72580000D01*
X130609000Y-70573000D01*
G36*
X135689000Y-70573000D02*
G01*
X136811000Y-70573000D01*
X136811000Y-72580000D01*
X135689000Y-72580000D01*
X135689000Y-70573000D01*
G37*
X135689000Y-70573000D02*
X136811000Y-70573000D01*
X136811000Y-72580000D01*
X135689000Y-72580000D01*
X135689000Y-70573000D01*
G36*
X125529000Y-70573000D02*
G01*
X126651000Y-70573000D01*
X126651000Y-72580000D01*
X125529000Y-72580000D01*
X125529000Y-70573000D01*
G37*
X125529000Y-70573000D02*
X126651000Y-70573000D01*
X126651000Y-72580000D01*
X125529000Y-72580000D01*
X125529000Y-70573000D01*
G36*
X140769000Y-70573000D02*
G01*
X141891000Y-70573000D01*
X141891000Y-72580000D01*
X140769000Y-72580000D01*
X140769000Y-70573000D01*
G37*
X140769000Y-70573000D02*
X141891000Y-70573000D01*
X141891000Y-72580000D01*
X140769000Y-72580000D01*
X140769000Y-70573000D01*
G36*
X110289000Y-70573000D02*
G01*
X111411000Y-70573000D01*
X111411000Y-72580000D01*
X110289000Y-72580000D01*
X110289000Y-70573000D01*
G37*
X110289000Y-70573000D02*
X111411000Y-70573000D01*
X111411000Y-72580000D01*
X110289000Y-72580000D01*
X110289000Y-70573000D01*
G36*
X115369000Y-70573000D02*
G01*
X116491000Y-70573000D01*
X116491000Y-72580000D01*
X115369000Y-72580000D01*
X115369000Y-70573000D01*
G37*
X115369000Y-70573000D02*
X116491000Y-70573000D01*
X116491000Y-72580000D01*
X115369000Y-72580000D01*
X115369000Y-70573000D01*
D10*
X148326000Y-69798000D02*
G75*
G03*
X148326000Y-69798000I-646000J0D01*
G01*
D11*
G36*
X107749000Y-67017000D02*
G01*
X108871000Y-67017000D01*
X108871000Y-69024000D01*
X107749000Y-69024000D01*
X107749000Y-67017000D01*
G37*
X107749000Y-67017000D02*
X108871000Y-67017000D01*
X108871000Y-69024000D01*
X107749000Y-69024000D01*
X107749000Y-67017000D01*
G36*
X128069000Y-67017000D02*
G01*
X129191000Y-67017000D01*
X129191000Y-69024000D01*
X128069000Y-69024000D01*
X128069000Y-67017000D01*
G37*
X128069000Y-67017000D02*
X129191000Y-67017000D01*
X129191000Y-69024000D01*
X128069000Y-69024000D01*
X128069000Y-67017000D01*
G36*
X148389000Y-67017000D02*
G01*
X149511000Y-67017000D01*
X149511000Y-69024000D01*
X148389000Y-69024000D01*
X148389000Y-67017000D01*
G37*
X148389000Y-67017000D02*
X149511000Y-67017000D01*
X149511000Y-69024000D01*
X148389000Y-69024000D01*
X148389000Y-67017000D01*
G36*
X122989000Y-67017000D02*
G01*
X124111000Y-67017000D01*
X124111000Y-69024000D01*
X122989000Y-69024000D01*
X122989000Y-67017000D01*
G37*
X122989000Y-67017000D02*
X124111000Y-67017000D01*
X124111000Y-69024000D01*
X122989000Y-69024000D01*
X122989000Y-67017000D01*
G36*
X133149000Y-67017000D02*
G01*
X134271000Y-67017000D01*
X134271000Y-69024000D01*
X133149000Y-69024000D01*
X133149000Y-67017000D01*
G37*
X133149000Y-67017000D02*
X134271000Y-67017000D01*
X134271000Y-69024000D01*
X133149000Y-69024000D01*
X133149000Y-67017000D01*
G36*
X138229000Y-67017000D02*
G01*
X139351000Y-67017000D01*
X139351000Y-69024000D01*
X138229000Y-69024000D01*
X138229000Y-67017000D01*
G37*
X138229000Y-67017000D02*
X139351000Y-67017000D01*
X139351000Y-69024000D01*
X138229000Y-69024000D01*
X138229000Y-67017000D01*
G36*
X112829000Y-67017000D02*
G01*
X113951000Y-67017000D01*
X113951000Y-69024000D01*
X112829000Y-69024000D01*
X112829000Y-67017000D01*
G37*
X112829000Y-67017000D02*
X113951000Y-67017000D01*
X113951000Y-69024000D01*
X112829000Y-69024000D01*
X112829000Y-67017000D01*
G36*
X117909000Y-67017000D02*
G01*
X119031000Y-67017000D01*
X119031000Y-69024000D01*
X117909000Y-69024000D01*
X117909000Y-67017000D01*
G37*
X117909000Y-67017000D02*
X119031000Y-67017000D01*
X119031000Y-69024000D01*
X117909000Y-69024000D01*
X117909000Y-67017000D01*
G36*
X97589000Y-67017000D02*
G01*
X98711000Y-67017000D01*
X98711000Y-69024000D01*
X97589000Y-69024000D01*
X97589000Y-67017000D01*
G37*
X97589000Y-67017000D02*
X98711000Y-67017000D01*
X98711000Y-69024000D01*
X97589000Y-69024000D01*
X97589000Y-67017000D01*
G36*
X95049000Y-70573000D02*
G01*
X96171000Y-70573000D01*
X96171000Y-72580000D01*
X95049000Y-72580000D01*
X95049000Y-70573000D01*
G37*
X95049000Y-70573000D02*
X96171000Y-70573000D01*
X96171000Y-72580000D01*
X95049000Y-72580000D01*
X95049000Y-70573000D01*
G36*
X89969000Y-70573000D02*
G01*
X91091000Y-70573000D01*
X91091000Y-72580000D01*
X89969000Y-72580000D01*
X89969000Y-70573000D01*
G37*
X89969000Y-70573000D02*
X91091000Y-70573000D01*
X91091000Y-72580000D01*
X89969000Y-72580000D01*
X89969000Y-70573000D01*
G36*
X105209000Y-70573000D02*
G01*
X106331000Y-70573000D01*
X106331000Y-72580000D01*
X105209000Y-72580000D01*
X105209000Y-70573000D01*
G37*
X105209000Y-70573000D02*
X106331000Y-70573000D01*
X106331000Y-72580000D01*
X105209000Y-72580000D01*
X105209000Y-70573000D01*
G36*
X92509000Y-67017000D02*
G01*
X93631000Y-67017000D01*
X93631000Y-69024000D01*
X92509000Y-69024000D01*
X92509000Y-67017000D01*
G37*
X92509000Y-67017000D02*
X93631000Y-67017000D01*
X93631000Y-69024000D01*
X92509000Y-69024000D01*
X92509000Y-67017000D01*
G36*
X100129000Y-70573000D02*
G01*
X101251000Y-70573000D01*
X101251000Y-72580000D01*
X100129000Y-72580000D01*
X100129000Y-70573000D01*
G37*
X100129000Y-70573000D02*
X101251000Y-70573000D01*
X101251000Y-72580000D01*
X100129000Y-72580000D01*
X100129000Y-70573000D01*
G36*
X102669000Y-67017000D02*
G01*
X103791000Y-67017000D01*
X103791000Y-69024000D01*
X102669000Y-69024000D01*
X102669000Y-67017000D01*
G37*
X102669000Y-67017000D02*
X103791000Y-67017000D01*
X103791000Y-69024000D01*
X102669000Y-69024000D01*
X102669000Y-67017000D01*
D10*
X92446000Y-85038000D02*
G75*
G03*
X92446000Y-85038000I-646000J0D01*
G01*
X148326000Y-85038000D02*
G75*
G03*
X148326000Y-85038000I-646000J0D01*
G01*
D11*
G36*
X148389000Y-82257000D02*
G01*
X149511000Y-82257000D01*
X149511000Y-84264000D01*
X148389000Y-84264000D01*
X148389000Y-82257000D01*
G37*
X148389000Y-82257000D02*
X149511000Y-82257000D01*
X149511000Y-84264000D01*
X148389000Y-84264000D01*
X148389000Y-82257000D01*
G36*
X145849000Y-85813000D02*
G01*
X146971000Y-85813000D01*
X146971000Y-87820000D01*
X145849000Y-87820000D01*
X145849000Y-85813000D01*
G37*
X145849000Y-85813000D02*
X146971000Y-85813000D01*
X146971000Y-87820000D01*
X145849000Y-87820000D01*
X145849000Y-85813000D01*
G36*
X143309000Y-82257000D02*
G01*
X144431000Y-82257000D01*
X144431000Y-84264000D01*
X143309000Y-84264000D01*
X143309000Y-82257000D01*
G37*
X143309000Y-82257000D02*
X144431000Y-82257000D01*
X144431000Y-84264000D01*
X143309000Y-84264000D01*
X143309000Y-82257000D01*
G36*
X140769000Y-85813000D02*
G01*
X141891000Y-85813000D01*
X141891000Y-87820000D01*
X140769000Y-87820000D01*
X140769000Y-85813000D01*
G37*
X140769000Y-85813000D02*
X141891000Y-85813000D01*
X141891000Y-87820000D01*
X140769000Y-87820000D01*
X140769000Y-85813000D01*
G36*
X138229000Y-82257000D02*
G01*
X139351000Y-82257000D01*
X139351000Y-84264000D01*
X138229000Y-84264000D01*
X138229000Y-82257000D01*
G37*
X138229000Y-82257000D02*
X139351000Y-82257000D01*
X139351000Y-84264000D01*
X138229000Y-84264000D01*
X138229000Y-82257000D01*
G36*
X135689000Y-85813000D02*
G01*
X136811000Y-85813000D01*
X136811000Y-87820000D01*
X135689000Y-87820000D01*
X135689000Y-85813000D01*
G37*
X135689000Y-85813000D02*
X136811000Y-85813000D01*
X136811000Y-87820000D01*
X135689000Y-87820000D01*
X135689000Y-85813000D01*
G36*
X133149000Y-82257000D02*
G01*
X134271000Y-82257000D01*
X134271000Y-84264000D01*
X133149000Y-84264000D01*
X133149000Y-82257000D01*
G37*
X133149000Y-82257000D02*
X134271000Y-82257000D01*
X134271000Y-84264000D01*
X133149000Y-84264000D01*
X133149000Y-82257000D01*
G36*
X130609000Y-85813000D02*
G01*
X131731000Y-85813000D01*
X131731000Y-87820000D01*
X130609000Y-87820000D01*
X130609000Y-85813000D01*
G37*
X130609000Y-85813000D02*
X131731000Y-85813000D01*
X131731000Y-87820000D01*
X130609000Y-87820000D01*
X130609000Y-85813000D01*
G36*
X128069000Y-82257000D02*
G01*
X129191000Y-82257000D01*
X129191000Y-84264000D01*
X128069000Y-84264000D01*
X128069000Y-82257000D01*
G37*
X128069000Y-82257000D02*
X129191000Y-82257000D01*
X129191000Y-84264000D01*
X128069000Y-84264000D01*
X128069000Y-82257000D01*
G36*
X125529000Y-85813000D02*
G01*
X126651000Y-85813000D01*
X126651000Y-87820000D01*
X125529000Y-87820000D01*
X125529000Y-85813000D01*
G37*
X125529000Y-85813000D02*
X126651000Y-85813000D01*
X126651000Y-87820000D01*
X125529000Y-87820000D01*
X125529000Y-85813000D01*
G36*
X122989000Y-82257000D02*
G01*
X124111000Y-82257000D01*
X124111000Y-84264000D01*
X122989000Y-84264000D01*
X122989000Y-82257000D01*
G37*
X122989000Y-82257000D02*
X124111000Y-82257000D01*
X124111000Y-84264000D01*
X122989000Y-84264000D01*
X122989000Y-82257000D01*
G36*
X120449000Y-85813000D02*
G01*
X121571000Y-85813000D01*
X121571000Y-87820000D01*
X120449000Y-87820000D01*
X120449000Y-85813000D01*
G37*
X120449000Y-85813000D02*
X121571000Y-85813000D01*
X121571000Y-87820000D01*
X120449000Y-87820000D01*
X120449000Y-85813000D01*
G36*
X117909000Y-82257000D02*
G01*
X119031000Y-82257000D01*
X119031000Y-84264000D01*
X117909000Y-84264000D01*
X117909000Y-82257000D01*
G37*
X117909000Y-82257000D02*
X119031000Y-82257000D01*
X119031000Y-84264000D01*
X117909000Y-84264000D01*
X117909000Y-82257000D01*
G36*
X115369000Y-85813000D02*
G01*
X116491000Y-85813000D01*
X116491000Y-87820000D01*
X115369000Y-87820000D01*
X115369000Y-85813000D01*
G37*
X115369000Y-85813000D02*
X116491000Y-85813000D01*
X116491000Y-87820000D01*
X115369000Y-87820000D01*
X115369000Y-85813000D01*
G36*
X112829000Y-82257000D02*
G01*
X113951000Y-82257000D01*
X113951000Y-84264000D01*
X112829000Y-84264000D01*
X112829000Y-82257000D01*
G37*
X112829000Y-82257000D02*
X113951000Y-82257000D01*
X113951000Y-84264000D01*
X112829000Y-84264000D01*
X112829000Y-82257000D01*
G36*
X110289000Y-85813000D02*
G01*
X111411000Y-85813000D01*
X111411000Y-87820000D01*
X110289000Y-87820000D01*
X110289000Y-85813000D01*
G37*
X110289000Y-85813000D02*
X111411000Y-85813000D01*
X111411000Y-87820000D01*
X110289000Y-87820000D01*
X110289000Y-85813000D01*
G36*
X107749000Y-82257000D02*
G01*
X108871000Y-82257000D01*
X108871000Y-84264000D01*
X107749000Y-84264000D01*
X107749000Y-82257000D01*
G37*
X107749000Y-82257000D02*
X108871000Y-82257000D01*
X108871000Y-84264000D01*
X107749000Y-84264000D01*
X107749000Y-82257000D01*
G36*
X105209000Y-85813000D02*
G01*
X106331000Y-85813000D01*
X106331000Y-87820000D01*
X105209000Y-87820000D01*
X105209000Y-85813000D01*
G37*
X105209000Y-85813000D02*
X106331000Y-85813000D01*
X106331000Y-87820000D01*
X105209000Y-87820000D01*
X105209000Y-85813000D01*
G36*
X102669000Y-82257000D02*
G01*
X103791000Y-82257000D01*
X103791000Y-84264000D01*
X102669000Y-84264000D01*
X102669000Y-82257000D01*
G37*
X102669000Y-82257000D02*
X103791000Y-82257000D01*
X103791000Y-84264000D01*
X102669000Y-84264000D01*
X102669000Y-82257000D01*
G36*
X100129000Y-85813000D02*
G01*
X101251000Y-85813000D01*
X101251000Y-87820000D01*
X100129000Y-87820000D01*
X100129000Y-85813000D01*
G37*
X100129000Y-85813000D02*
X101251000Y-85813000D01*
X101251000Y-87820000D01*
X100129000Y-87820000D01*
X100129000Y-85813000D01*
G36*
X97589000Y-82257000D02*
G01*
X98711000Y-82257000D01*
X98711000Y-84264000D01*
X97589000Y-84264000D01*
X97589000Y-82257000D01*
G37*
X97589000Y-82257000D02*
X98711000Y-82257000D01*
X98711000Y-84264000D01*
X97589000Y-84264000D01*
X97589000Y-82257000D01*
G36*
X95049000Y-85813000D02*
G01*
X96171000Y-85813000D01*
X96171000Y-87820000D01*
X95049000Y-87820000D01*
X95049000Y-85813000D01*
G37*
X95049000Y-85813000D02*
X96171000Y-85813000D01*
X96171000Y-87820000D01*
X95049000Y-87820000D01*
X95049000Y-85813000D01*
G36*
X92509000Y-82257000D02*
G01*
X93631000Y-82257000D01*
X93631000Y-84264000D01*
X92509000Y-84264000D01*
X92509000Y-82257000D01*
G37*
X92509000Y-82257000D02*
X93631000Y-82257000D01*
X93631000Y-84264000D01*
X92509000Y-84264000D01*
X92509000Y-82257000D01*
G36*
X89969000Y-85813000D02*
G01*
X91091000Y-85813000D01*
X91091000Y-87820000D01*
X89969000Y-87820000D01*
X89969000Y-85813000D01*
G37*
X89969000Y-85813000D02*
X91091000Y-85813000D01*
X91091000Y-87820000D01*
X89969000Y-87820000D01*
X89969000Y-85813000D01*
D12*
X136010156Y-75834400D03*
X136503678Y-75834400D03*
X134036068Y-75834400D03*
X134529590Y-75834400D03*
X135516634Y-75834400D03*
X134036068Y-74005600D03*
X135023112Y-75834400D03*
X134529590Y-74005600D03*
X135023112Y-74005600D03*
X135516634Y-74005600D03*
X136010156Y-74005600D03*
X136503678Y-74005600D03*
D13*
X137251200Y-74005600D03*
X133288800Y-74005600D03*
X133288800Y-75834400D03*
X137251200Y-75834400D03*
G36*
G01*
X143037500Y-121068750D02*
X143037500Y-121631250D01*
G75*
G02*
X142793750Y-121875000I-243750J0D01*
G01*
X142306250Y-121875000D01*
G75*
G02*
X142062500Y-121631250I0J243750D01*
G01*
X142062500Y-121068750D01*
G75*
G02*
X142306250Y-120825000I243750J0D01*
G01*
X142793750Y-120825000D01*
G75*
G02*
X143037500Y-121068750I0J-243750D01*
G01*
G37*
G36*
G01*
X144612500Y-121068750D02*
X144612500Y-121631250D01*
G75*
G02*
X144368750Y-121875000I-243750J0D01*
G01*
X143881250Y-121875000D01*
G75*
G02*
X143637500Y-121631250I0J243750D01*
G01*
X143637500Y-121068750D01*
G75*
G02*
X143881250Y-120825000I243750J0D01*
G01*
X144368750Y-120825000D01*
G75*
G02*
X144612500Y-121068750I0J-243750D01*
G01*
G37*
D14*
X125820000Y-98740000D03*
X125820000Y-93640000D03*
D15*
X136020000Y-96190000D03*
D14*
X125830000Y-115570000D03*
X125830000Y-110470000D03*
D15*
X136030000Y-113020000D03*
D14*
X125830000Y-148460000D03*
X125830000Y-143360000D03*
D15*
X136030000Y-145910000D03*
D14*
X125830000Y-131940000D03*
X125830000Y-126840000D03*
D15*
X136030000Y-129390000D03*
D16*
X65550000Y-61270000D03*
X148050000Y-61270000D03*
X148050000Y-162270000D03*
X65550000Y-162270000D03*
D17*
X87430000Y-123545000D03*
X87430000Y-128115000D03*
X90530000Y-125830000D03*
X80720000Y-128115000D03*
X83820000Y-125830000D03*
X80720000Y-123545000D03*
D18*
X91800000Y-85038000D03*
X147680000Y-85038000D03*
X91800000Y-69798000D03*
X147680000Y-69798000D03*
D16*
X107350000Y-98840000D03*
D19*
X90190000Y-79610000D03*
D20*
X90190000Y-77940000D03*
X90190000Y-78740000D03*
D19*
X90190000Y-77070000D03*
D20*
X88790000Y-78740000D03*
D19*
X88790000Y-79610000D03*
D20*
X88790000Y-77940000D03*
D19*
X88790000Y-77070000D03*
D17*
X65510000Y-106335000D03*
X65510000Y-110905000D03*
X68610000Y-108620000D03*
X58800000Y-110905000D03*
X61900000Y-108620000D03*
X58800000Y-106335000D03*
D21*
X77102500Y-50720000D03*
X137042500Y-50720000D03*
X107072500Y-50720000D03*
D22*
X135852500Y-55310000D03*
X78292500Y-55310000D03*
D23*
X135135000Y-63760000D03*
X133865000Y-63760000D03*
X132595000Y-63760000D03*
X131325000Y-63760000D03*
X130055000Y-63760000D03*
X128785000Y-63760000D03*
X127515000Y-63760000D03*
X126245000Y-63760000D03*
X119390000Y-63760000D03*
X118120000Y-63760000D03*
X116850000Y-63760000D03*
X115580000Y-63760000D03*
X114310000Y-63760000D03*
X113040000Y-63760000D03*
X111770000Y-63760000D03*
X110500000Y-63760000D03*
X103645000Y-63760000D03*
X102375000Y-63760000D03*
X101105000Y-63760000D03*
X99835000Y-63760000D03*
X98565000Y-63760000D03*
X97295000Y-63760000D03*
X96025000Y-63760000D03*
X94755000Y-63760000D03*
X87900000Y-63760000D03*
X86630000Y-63760000D03*
X85360000Y-63760000D03*
X84090000Y-63760000D03*
X82820000Y-63760000D03*
X81550000Y-63760000D03*
X80280000Y-63760000D03*
X79010000Y-63760000D03*
D24*
X109260000Y-74650000D03*
D25*
X107590000Y-74650000D03*
X108390000Y-74650000D03*
D24*
X106720000Y-74650000D03*
D25*
X108390000Y-76050000D03*
D24*
X109260000Y-76050000D03*
D25*
X107590000Y-76050000D03*
D24*
X106720000Y-76050000D03*
G36*
G01*
X62210000Y-141956400D02*
X62210000Y-147903600D01*
G75*
G02*
X62033600Y-148080000I-176400J0D01*
G01*
X54986400Y-148080000D01*
G75*
G02*
X54810000Y-147903600I0J176400D01*
G01*
X54810000Y-141956400D01*
G75*
G02*
X54986400Y-141780000I176400J0D01*
G01*
X62033600Y-141780000D01*
G75*
G02*
X62210000Y-141956400I0J-176400D01*
G01*
G37*
G36*
G01*
X75310000Y-141956400D02*
X75310000Y-147903600D01*
G75*
G02*
X75133600Y-148080000I-176400J0D01*
G01*
X68086400Y-148080000D01*
G75*
G02*
X67910000Y-147903600I0J176400D01*
G01*
X67910000Y-141956400D01*
G75*
G02*
X68086400Y-141780000I176400J0D01*
G01*
X75133600Y-141780000D01*
G75*
G02*
X75310000Y-141956400I0J-176400D01*
G01*
G37*
G36*
G01*
X62220000Y-122386400D02*
X62220000Y-128333600D01*
G75*
G02*
X62043600Y-128510000I-176400J0D01*
G01*
X54996400Y-128510000D01*
G75*
G02*
X54820000Y-128333600I0J176400D01*
G01*
X54820000Y-122386400D01*
G75*
G02*
X54996400Y-122210000I176400J0D01*
G01*
X62043600Y-122210000D01*
G75*
G02*
X62220000Y-122386400I0J-176400D01*
G01*
G37*
G36*
G01*
X75320000Y-122386400D02*
X75320000Y-128333600D01*
G75*
G02*
X75143600Y-128510000I-176400J0D01*
G01*
X68096400Y-128510000D01*
G75*
G02*
X67920000Y-128333600I0J176400D01*
G01*
X67920000Y-122386400D01*
G75*
G02*
X68096400Y-122210000I176400J0D01*
G01*
X75143600Y-122210000D01*
G75*
G02*
X75320000Y-122386400I0J-176400D01*
G01*
G37*
G36*
G01*
X85860000Y-108273600D02*
X85860000Y-102326400D01*
G75*
G02*
X86036400Y-102150000I176400J0D01*
G01*
X93083600Y-102150000D01*
G75*
G02*
X93260000Y-102326400I0J-176400D01*
G01*
X93260000Y-108273600D01*
G75*
G02*
X93083600Y-108450000I-176400J0D01*
G01*
X86036400Y-108450000D01*
G75*
G02*
X85860000Y-108273600I0J176400D01*
G01*
G37*
G36*
G01*
X72760000Y-108273600D02*
X72760000Y-102326400D01*
G75*
G02*
X72936400Y-102150000I176400J0D01*
G01*
X79983600Y-102150000D01*
G75*
G02*
X80160000Y-102326400I0J-176400D01*
G01*
X80160000Y-108273600D01*
G75*
G02*
X79983600Y-108450000I-176400J0D01*
G01*
X72936400Y-108450000D01*
G75*
G02*
X72760000Y-108273600I0J176400D01*
G01*
G37*
D26*
X83750000Y-86410000D03*
X78670000Y-86410000D03*
X73590000Y-86410000D03*
X68510000Y-86410000D03*
X86290000Y-89720000D03*
X81210000Y-89720000D03*
X76130000Y-89720000D03*
X71050000Y-89720000D03*
G36*
G01*
X105535000Y-107825000D02*
X105535000Y-108175000D01*
G75*
G02*
X105360000Y-108350000I-175000J0D01*
G01*
X103660000Y-108350000D01*
G75*
G02*
X103485000Y-108175000I0J175000D01*
G01*
X103485000Y-107825000D01*
G75*
G02*
X103660000Y-107650000I175000J0D01*
G01*
X105360000Y-107650000D01*
G75*
G02*
X105535000Y-107825000I0J-175000D01*
G01*
G37*
G36*
G01*
X105535000Y-106555000D02*
X105535000Y-106905000D01*
G75*
G02*
X105360000Y-107080000I-175000J0D01*
G01*
X103660000Y-107080000D01*
G75*
G02*
X103485000Y-106905000I0J175000D01*
G01*
X103485000Y-106555000D01*
G75*
G02*
X103660000Y-106380000I175000J0D01*
G01*
X105360000Y-106380000D01*
G75*
G02*
X105535000Y-106555000I0J-175000D01*
G01*
G37*
G36*
G01*
X105535000Y-105285000D02*
X105535000Y-105635000D01*
G75*
G02*
X105360000Y-105810000I-175000J0D01*
G01*
X103660000Y-105810000D01*
G75*
G02*
X103485000Y-105635000I0J175000D01*
G01*
X103485000Y-105285000D01*
G75*
G02*
X103660000Y-105110000I175000J0D01*
G01*
X105360000Y-105110000D01*
G75*
G02*
X105535000Y-105285000I0J-175000D01*
G01*
G37*
G36*
G01*
X105535000Y-104015000D02*
X105535000Y-104365000D01*
G75*
G02*
X105360000Y-104540000I-175000J0D01*
G01*
X103660000Y-104540000D01*
G75*
G02*
X103485000Y-104365000I0J175000D01*
G01*
X103485000Y-104015000D01*
G75*
G02*
X103660000Y-103840000I175000J0D01*
G01*
X105360000Y-103840000D01*
G75*
G02*
X105535000Y-104015000I0J-175000D01*
G01*
G37*
G36*
G01*
X110485000Y-104015000D02*
X110485000Y-104365000D01*
G75*
G02*
X110310000Y-104540000I-175000J0D01*
G01*
X108610000Y-104540000D01*
G75*
G02*
X108435000Y-104365000I0J175000D01*
G01*
X108435000Y-104015000D01*
G75*
G02*
X108610000Y-103840000I175000J0D01*
G01*
X110310000Y-103840000D01*
G75*
G02*
X110485000Y-104015000I0J-175000D01*
G01*
G37*
G36*
G01*
X110485000Y-105285000D02*
X110485000Y-105635000D01*
G75*
G02*
X110310000Y-105810000I-175000J0D01*
G01*
X108610000Y-105810000D01*
G75*
G02*
X108435000Y-105635000I0J175000D01*
G01*
X108435000Y-105285000D01*
G75*
G02*
X108610000Y-105110000I175000J0D01*
G01*
X110310000Y-105110000D01*
G75*
G02*
X110485000Y-105285000I0J-175000D01*
G01*
G37*
G36*
G01*
X110485000Y-106555000D02*
X110485000Y-106905000D01*
G75*
G02*
X110310000Y-107080000I-175000J0D01*
G01*
X108610000Y-107080000D01*
G75*
G02*
X108435000Y-106905000I0J175000D01*
G01*
X108435000Y-106555000D01*
G75*
G02*
X108610000Y-106380000I175000J0D01*
G01*
X110310000Y-106380000D01*
G75*
G02*
X110485000Y-106555000I0J-175000D01*
G01*
G37*
G36*
G01*
X110485000Y-107825000D02*
X110485000Y-108175000D01*
G75*
G02*
X110310000Y-108350000I-175000J0D01*
G01*
X108610000Y-108350000D01*
G75*
G02*
X108435000Y-108175000I0J175000D01*
G01*
X108435000Y-107825000D01*
G75*
G02*
X108610000Y-107650000I175000J0D01*
G01*
X110310000Y-107650000D01*
G75*
G02*
X110485000Y-107825000I0J-175000D01*
G01*
G37*
D27*
X118580000Y-94700000D03*
X118080000Y-94700000D03*
X117580000Y-94700000D03*
X117080000Y-94700000D03*
X116580000Y-94700000D03*
X116580000Y-99000000D03*
X117080000Y-99000000D03*
X117580000Y-99000000D03*
X118080000Y-99000000D03*
X118580000Y-99000000D03*
D28*
X117960000Y-92270000D03*
X116740000Y-92270000D03*
D29*
X60135000Y-81020000D03*
X60135000Y-75940000D03*
X56825000Y-78480000D03*
D30*
X93250000Y-80830000D03*
X93900000Y-80830000D03*
X94550000Y-80830000D03*
X95200000Y-80830000D03*
X95850000Y-80830000D03*
X96500000Y-80830000D03*
X97150000Y-80830000D03*
X97150000Y-75090000D03*
X96500000Y-75090000D03*
X95850000Y-75090000D03*
X95200000Y-75090000D03*
X94550000Y-75090000D03*
X93900000Y-75090000D03*
X93250000Y-75090000D03*
G36*
G01*
X78475000Y-148225000D02*
X77165000Y-148225000D01*
G75*
G02*
X76895000Y-147955000I0J270000D01*
G01*
X76895000Y-147145000D01*
G75*
G02*
X77165000Y-146875000I270000J0D01*
G01*
X78475000Y-146875000D01*
G75*
G02*
X78745000Y-147145000I0J-270000D01*
G01*
X78745000Y-147955000D01*
G75*
G02*
X78475000Y-148225000I-270000J0D01*
G01*
G37*
G36*
G01*
X78475000Y-151025000D02*
X77165000Y-151025000D01*
G75*
G02*
X76895000Y-150755000I0J270000D01*
G01*
X76895000Y-149945000D01*
G75*
G02*
X77165000Y-149675000I270000J0D01*
G01*
X78475000Y-149675000D01*
G75*
G02*
X78745000Y-149945000I0J-270000D01*
G01*
X78745000Y-150755000D01*
G75*
G02*
X78475000Y-151025000I-270000J0D01*
G01*
G37*
G36*
G01*
X58865000Y-84645000D02*
X58865000Y-83335000D01*
G75*
G02*
X59135000Y-83065000I270000J0D01*
G01*
X59945000Y-83065000D01*
G75*
G02*
X60215000Y-83335000I0J-270000D01*
G01*
X60215000Y-84645000D01*
G75*
G02*
X59945000Y-84915000I-270000J0D01*
G01*
X59135000Y-84915000D01*
G75*
G02*
X58865000Y-84645000I0J270000D01*
G01*
G37*
G36*
G01*
X56065000Y-84645000D02*
X56065000Y-83335000D01*
G75*
G02*
X56335000Y-83065000I270000J0D01*
G01*
X57145000Y-83065000D01*
G75*
G02*
X57415000Y-83335000I0J-270000D01*
G01*
X57415000Y-84645000D01*
G75*
G02*
X57145000Y-84915000I-270000J0D01*
G01*
X56335000Y-84915000D01*
G75*
G02*
X56065000Y-84645000I0J270000D01*
G01*
G37*
G36*
G01*
X80165000Y-92425000D02*
X80165000Y-93735000D01*
G75*
G02*
X79895000Y-94005000I-270000J0D01*
G01*
X79085000Y-94005000D01*
G75*
G02*
X78815000Y-93735000I0J270000D01*
G01*
X78815000Y-92425000D01*
G75*
G02*
X79085000Y-92155000I270000J0D01*
G01*
X79895000Y-92155000D01*
G75*
G02*
X80165000Y-92425000I0J-270000D01*
G01*
G37*
G36*
G01*
X82965000Y-92425000D02*
X82965000Y-93735000D01*
G75*
G02*
X82695000Y-94005000I-270000J0D01*
G01*
X81885000Y-94005000D01*
G75*
G02*
X81615000Y-93735000I0J270000D01*
G01*
X81615000Y-92425000D01*
G75*
G02*
X81885000Y-92155000I270000J0D01*
G01*
X82695000Y-92155000D01*
G75*
G02*
X82965000Y-92425000I0J-270000D01*
G01*
G37*
D31*
X110030000Y-93260000D03*
X110030000Y-92040000D03*
D28*
X96980000Y-103440000D03*
X98200000Y-103440000D03*
D31*
X104020000Y-77690000D03*
X104020000Y-76470000D03*
G36*
G01*
X86052500Y-85048750D02*
X86052500Y-85611250D01*
G75*
G02*
X85808750Y-85855000I-243750J0D01*
G01*
X85321250Y-85855000D01*
G75*
G02*
X85077500Y-85611250I0J243750D01*
G01*
X85077500Y-85048750D01*
G75*
G02*
X85321250Y-84805000I243750J0D01*
G01*
X85808750Y-84805000D01*
G75*
G02*
X86052500Y-85048750I0J-243750D01*
G01*
G37*
G36*
G01*
X87627500Y-85048750D02*
X87627500Y-85611250D01*
G75*
G02*
X87383750Y-85855000I-243750J0D01*
G01*
X86896250Y-85855000D01*
G75*
G02*
X86652500Y-85611250I0J243750D01*
G01*
X86652500Y-85048750D01*
G75*
G02*
X86896250Y-84805000I243750J0D01*
G01*
X87383750Y-84805000D01*
G75*
G02*
X87627500Y-85048750I0J-243750D01*
G01*
G37*
G36*
G01*
X75107500Y-92048750D02*
X75107500Y-92611250D01*
G75*
G02*
X74863750Y-92855000I-243750J0D01*
G01*
X74376250Y-92855000D01*
G75*
G02*
X74132500Y-92611250I0J243750D01*
G01*
X74132500Y-92048750D01*
G75*
G02*
X74376250Y-91805000I243750J0D01*
G01*
X74863750Y-91805000D01*
G75*
G02*
X75107500Y-92048750I0J-243750D01*
G01*
G37*
G36*
G01*
X76682500Y-92048750D02*
X76682500Y-92611250D01*
G75*
G02*
X76438750Y-92855000I-243750J0D01*
G01*
X75951250Y-92855000D01*
G75*
G02*
X75707500Y-92611250I0J243750D01*
G01*
X75707500Y-92048750D01*
G75*
G02*
X75951250Y-91805000I243750J0D01*
G01*
X76438750Y-91805000D01*
G75*
G02*
X76682500Y-92048750I0J-243750D01*
G01*
G37*
D32*
X116320000Y-115420000D03*
X112383000Y-115420000D03*
D33*
X98510000Y-80720000D03*
X100610000Y-80720000D03*
G36*
G01*
X91985000Y-64485000D02*
X91985000Y-63175000D01*
G75*
G02*
X92255000Y-62905000I270000J0D01*
G01*
X93065000Y-62905000D01*
G75*
G02*
X93335000Y-63175000I0J-270000D01*
G01*
X93335000Y-64485000D01*
G75*
G02*
X93065000Y-64755000I-270000J0D01*
G01*
X92255000Y-64755000D01*
G75*
G02*
X91985000Y-64485000I0J270000D01*
G01*
G37*
G36*
G01*
X89185000Y-64485000D02*
X89185000Y-63175000D01*
G75*
G02*
X89455000Y-62905000I270000J0D01*
G01*
X90265000Y-62905000D01*
G75*
G02*
X90535000Y-63175000I0J-270000D01*
G01*
X90535000Y-64485000D01*
G75*
G02*
X90265000Y-64755000I-270000J0D01*
G01*
X89455000Y-64755000D01*
G75*
G02*
X89185000Y-64485000I0J270000D01*
G01*
G37*
D34*
X140780000Y-104610000D03*
X151480000Y-104610000D03*
G36*
G01*
X61286482Y-76945000D02*
X59073518Y-76945000D01*
G75*
G02*
X58805000Y-76676482I0J268518D01*
G01*
X58805000Y-75763518D01*
G75*
G02*
X59073518Y-75495000I268518J0D01*
G01*
X61286482Y-75495000D01*
G75*
G02*
X61555000Y-75763518I0J-268518D01*
G01*
X61555000Y-76676482D01*
G75*
G02*
X61286482Y-76945000I-268518J0D01*
G01*
G37*
G36*
G01*
X61286482Y-81445000D02*
X59073518Y-81445000D01*
G75*
G02*
X58805000Y-81176482I0J268518D01*
G01*
X58805000Y-80263518D01*
G75*
G02*
X59073518Y-79995000I268518J0D01*
G01*
X61286482Y-79995000D01*
G75*
G02*
X61555000Y-80263518I0J-268518D01*
G01*
X61555000Y-81176482D01*
G75*
G02*
X61286482Y-81445000I-268518J0D01*
G01*
G37*
G36*
G01*
X105645000Y-92655000D02*
X107855000Y-92655000D01*
G75*
G02*
X108125000Y-92925000I0J-270000D01*
G01*
X108125000Y-93735000D01*
G75*
G02*
X107855000Y-94005000I-270000J0D01*
G01*
X105645000Y-94005000D01*
G75*
G02*
X105375000Y-93735000I0J270000D01*
G01*
X105375000Y-92925000D01*
G75*
G02*
X105645000Y-92655000I270000J0D01*
G01*
G37*
G36*
G01*
X105645000Y-89855000D02*
X107855000Y-89855000D01*
G75*
G02*
X108125000Y-90125000I0J-270000D01*
G01*
X108125000Y-90935000D01*
G75*
G02*
X107855000Y-91205000I-270000J0D01*
G01*
X105645000Y-91205000D01*
G75*
G02*
X105375000Y-90935000I0J270000D01*
G01*
X105375000Y-90125000D01*
G75*
G02*
X105645000Y-89855000I270000J0D01*
G01*
G37*
G36*
G01*
X93925000Y-94995000D02*
X96135000Y-94995000D01*
G75*
G02*
X96405000Y-95265000I0J-270000D01*
G01*
X96405000Y-96075000D01*
G75*
G02*
X96135000Y-96345000I-270000J0D01*
G01*
X93925000Y-96345000D01*
G75*
G02*
X93655000Y-96075000I0J270000D01*
G01*
X93655000Y-95265000D01*
G75*
G02*
X93925000Y-94995000I270000J0D01*
G01*
G37*
G36*
G01*
X93925000Y-92195000D02*
X96135000Y-92195000D01*
G75*
G02*
X96405000Y-92465000I0J-270000D01*
G01*
X96405000Y-93275000D01*
G75*
G02*
X96135000Y-93545000I-270000J0D01*
G01*
X93925000Y-93545000D01*
G75*
G02*
X93655000Y-93275000I0J270000D01*
G01*
X93655000Y-92465000D01*
G75*
G02*
X93925000Y-92195000I270000J0D01*
G01*
G37*
D35*
X146840003Y-91919600D03*
X146340001Y-91919600D03*
X145840002Y-91919600D03*
X145340001Y-91919600D03*
X144840001Y-91919600D03*
X144340003Y-91919600D03*
X143840001Y-91919600D03*
X143340002Y-91919600D03*
X143339999Y-93210000D03*
X143840001Y-93210000D03*
X144340000Y-93210000D03*
X144840001Y-93210000D03*
X145340001Y-93210000D03*
X145839999Y-93210000D03*
X146340001Y-93210000D03*
X146840000Y-93210000D03*
D36*
X101790000Y-108674400D03*
D37*
X100520000Y-111570000D03*
D36*
X99250000Y-108674400D03*
D38*
X143180000Y-170600000D03*
X140640000Y-170600000D03*
D26*
X144450000Y-168945000D03*
X139370000Y-168945000D03*
X141910000Y-172255000D03*
D38*
X57555000Y-168950000D03*
X57555000Y-161330000D03*
D29*
X59210000Y-170220000D03*
X59210000Y-165140000D03*
X59210000Y-160060000D03*
X55900000Y-167680000D03*
X55900000Y-162600000D03*
D39*
X102500000Y-172700000D03*
X111360000Y-172700000D03*
X106930000Y-152810000D03*
X102500000Y-152810000D03*
X111360000Y-152810000D03*
D40*
X101697000Y-101075000D03*
X101697000Y-99805000D03*
X101697000Y-98535000D03*
X101697000Y-97265000D03*
X96363000Y-97265000D03*
X96363000Y-98535000D03*
X96363000Y-99805000D03*
X96363000Y-101075000D03*
D41*
X99030000Y-99170000D03*
D42*
X114970000Y-92340000D03*
X114970000Y-94240000D03*
X112350000Y-94240000D03*
X112350000Y-93290000D03*
X112350000Y-92340000D03*
D43*
X108305000Y-126855000D03*
D44*
X117455000Y-124315000D03*
X117455000Y-129395000D03*
D39*
X114490000Y-172700000D03*
X123350000Y-172700000D03*
X118920000Y-152810000D03*
X114490000Y-152810000D03*
X123350000Y-152810000D03*
D34*
X128850000Y-79850000D03*
X118150000Y-79850000D03*
D45*
X131860000Y-79860000D03*
X131860000Y-78560000D03*
X133760000Y-79210000D03*
X131860000Y-79210000D03*
X133760000Y-78560000D03*
X133760000Y-79860000D03*
X105250000Y-79810000D03*
X105250000Y-81110000D03*
X103350000Y-80460000D03*
X105250000Y-80460000D03*
X103350000Y-81110000D03*
X103350000Y-79810000D03*
D46*
X132500000Y-164020000D03*
X132500000Y-173020000D03*
G36*
G01*
X87635000Y-148225000D02*
X86325000Y-148225000D01*
G75*
G02*
X86055000Y-147955000I0J270000D01*
G01*
X86055000Y-147145000D01*
G75*
G02*
X86325000Y-146875000I270000J0D01*
G01*
X87635000Y-146875000D01*
G75*
G02*
X87905000Y-147145000I0J-270000D01*
G01*
X87905000Y-147955000D01*
G75*
G02*
X87635000Y-148225000I-270000J0D01*
G01*
G37*
G36*
G01*
X87635000Y-151025000D02*
X86325000Y-151025000D01*
G75*
G02*
X86055000Y-150755000I0J270000D01*
G01*
X86055000Y-149945000D01*
G75*
G02*
X86325000Y-149675000I270000J0D01*
G01*
X87635000Y-149675000D01*
G75*
G02*
X87905000Y-149945000I0J-270000D01*
G01*
X87905000Y-150755000D01*
G75*
G02*
X87635000Y-151025000I-270000J0D01*
G01*
G37*
D26*
X60180000Y-51630000D03*
X55100000Y-51630000D03*
X62720000Y-54940000D03*
X57640000Y-54940000D03*
D39*
X90500000Y-172700000D03*
X99360000Y-172700000D03*
X94930000Y-152810000D03*
X90500000Y-152810000D03*
X99360000Y-152810000D03*
X78500000Y-172700000D03*
X87360000Y-172700000D03*
X82930000Y-152810000D03*
X78500000Y-152810000D03*
X87360000Y-152810000D03*
G36*
G01*
X114732500Y-132998750D02*
X114732500Y-133561250D01*
G75*
G02*
X114488750Y-133805000I-243750J0D01*
G01*
X114001250Y-133805000D01*
G75*
G02*
X113757500Y-133561250I0J243750D01*
G01*
X113757500Y-132998750D01*
G75*
G02*
X114001250Y-132755000I243750J0D01*
G01*
X114488750Y-132755000D01*
G75*
G02*
X114732500Y-132998750I0J-243750D01*
G01*
G37*
G36*
G01*
X116307500Y-132998750D02*
X116307500Y-133561250D01*
G75*
G02*
X116063750Y-133805000I-243750J0D01*
G01*
X115576250Y-133805000D01*
G75*
G02*
X115332500Y-133561250I0J243750D01*
G01*
X115332500Y-132998750D01*
G75*
G02*
X115576250Y-132755000I243750J0D01*
G01*
X116063750Y-132755000D01*
G75*
G02*
X116307500Y-132998750I0J-243750D01*
G01*
G37*
D36*
X112200000Y-109220000D03*
D37*
X113470000Y-106324400D03*
D36*
X114740000Y-109220000D03*
G36*
G01*
X70775000Y-94245000D02*
X70775000Y-92035000D01*
G75*
G02*
X71045000Y-91765000I270000J0D01*
G01*
X71855000Y-91765000D01*
G75*
G02*
X72125000Y-92035000I0J-270000D01*
G01*
X72125000Y-94245000D01*
G75*
G02*
X71855000Y-94515000I-270000J0D01*
G01*
X71045000Y-94515000D01*
G75*
G02*
X70775000Y-94245000I0J270000D01*
G01*
G37*
G36*
G01*
X67975000Y-94245000D02*
X67975000Y-92035000D01*
G75*
G02*
X68245000Y-91765000I270000J0D01*
G01*
X69055000Y-91765000D01*
G75*
G02*
X69325000Y-92035000I0J-270000D01*
G01*
X69325000Y-94245000D01*
G75*
G02*
X69055000Y-94515000I-270000J0D01*
G01*
X68245000Y-94515000D01*
G75*
G02*
X67975000Y-94245000I0J270000D01*
G01*
G37*
D45*
X137890000Y-78460000D03*
X137890000Y-79760000D03*
X135990000Y-79110000D03*
X137890000Y-79110000D03*
X135990000Y-79760000D03*
X135990000Y-78460000D03*
D31*
X91110000Y-75090000D03*
X91110000Y-73870000D03*
G36*
G01*
X107032500Y-109841250D02*
X107032500Y-109278750D01*
G75*
G02*
X107276250Y-109035000I243750J0D01*
G01*
X107763750Y-109035000D01*
G75*
G02*
X108007500Y-109278750I0J-243750D01*
G01*
X108007500Y-109841250D01*
G75*
G02*
X107763750Y-110085000I-243750J0D01*
G01*
X107276250Y-110085000D01*
G75*
G02*
X107032500Y-109841250I0J243750D01*
G01*
G37*
G36*
G01*
X105457500Y-109841250D02*
X105457500Y-109278750D01*
G75*
G02*
X105701250Y-109035000I243750J0D01*
G01*
X106188750Y-109035000D01*
G75*
G02*
X106432500Y-109278750I0J-243750D01*
G01*
X106432500Y-109841250D01*
G75*
G02*
X106188750Y-110085000I-243750J0D01*
G01*
X105701250Y-110085000D01*
G75*
G02*
X105457500Y-109841250I0J243750D01*
G01*
G37*
X112230000Y-102720000D03*
X112230000Y-103940000D03*
D28*
X102540000Y-106070000D03*
X101320000Y-106070000D03*
G36*
G01*
X84945000Y-92455000D02*
X84945000Y-93765000D01*
G75*
G02*
X84675000Y-94035000I-270000J0D01*
G01*
X83865000Y-94035000D01*
G75*
G02*
X83595000Y-93765000I0J270000D01*
G01*
X83595000Y-92455000D01*
G75*
G02*
X83865000Y-92185000I270000J0D01*
G01*
X84675000Y-92185000D01*
G75*
G02*
X84945000Y-92455000I0J-270000D01*
G01*
G37*
G36*
G01*
X87745000Y-92455000D02*
X87745000Y-93765000D01*
G75*
G02*
X87475000Y-94035000I-270000J0D01*
G01*
X86665000Y-94035000D01*
G75*
G02*
X86395000Y-93765000I0J270000D01*
G01*
X86395000Y-92455000D01*
G75*
G02*
X86665000Y-92185000I270000J0D01*
G01*
X87475000Y-92185000D01*
G75*
G02*
X87745000Y-92455000I0J-270000D01*
G01*
G37*
G36*
G01*
X85345000Y-148225000D02*
X84035000Y-148225000D01*
G75*
G02*
X83765000Y-147955000I0J270000D01*
G01*
X83765000Y-147145000D01*
G75*
G02*
X84035000Y-146875000I270000J0D01*
G01*
X85345000Y-146875000D01*
G75*
G02*
X85615000Y-147145000I0J-270000D01*
G01*
X85615000Y-147955000D01*
G75*
G02*
X85345000Y-148225000I-270000J0D01*
G01*
G37*
G36*
G01*
X85345000Y-151025000D02*
X84035000Y-151025000D01*
G75*
G02*
X83765000Y-150755000I0J270000D01*
G01*
X83765000Y-149945000D01*
G75*
G02*
X84035000Y-149675000I270000J0D01*
G01*
X85345000Y-149675000D01*
G75*
G02*
X85615000Y-149945000I0J-270000D01*
G01*
X85615000Y-150755000D01*
G75*
G02*
X85345000Y-151025000I-270000J0D01*
G01*
G37*
G36*
G01*
X83055000Y-148225000D02*
X81745000Y-148225000D01*
G75*
G02*
X81475000Y-147955000I0J270000D01*
G01*
X81475000Y-147145000D01*
G75*
G02*
X81745000Y-146875000I270000J0D01*
G01*
X83055000Y-146875000D01*
G75*
G02*
X83325000Y-147145000I0J-270000D01*
G01*
X83325000Y-147955000D01*
G75*
G02*
X83055000Y-148225000I-270000J0D01*
G01*
G37*
G36*
G01*
X83055000Y-151025000D02*
X81745000Y-151025000D01*
G75*
G02*
X81475000Y-150755000I0J270000D01*
G01*
X81475000Y-149945000D01*
G75*
G02*
X81745000Y-149675000I270000J0D01*
G01*
X83055000Y-149675000D01*
G75*
G02*
X83325000Y-149945000I0J-270000D01*
G01*
X83325000Y-150755000D01*
G75*
G02*
X83055000Y-151025000I-270000J0D01*
G01*
G37*
G36*
G01*
X80765000Y-148225000D02*
X79455000Y-148225000D01*
G75*
G02*
X79185000Y-147955000I0J270000D01*
G01*
X79185000Y-147145000D01*
G75*
G02*
X79455000Y-146875000I270000J0D01*
G01*
X80765000Y-146875000D01*
G75*
G02*
X81035000Y-147145000I0J-270000D01*
G01*
X81035000Y-147955000D01*
G75*
G02*
X80765000Y-148225000I-270000J0D01*
G01*
G37*
G36*
G01*
X80765000Y-151025000D02*
X79455000Y-151025000D01*
G75*
G02*
X79185000Y-150755000I0J270000D01*
G01*
X79185000Y-149945000D01*
G75*
G02*
X79455000Y-149675000I270000J0D01*
G01*
X80765000Y-149675000D01*
G75*
G02*
X81035000Y-149945000I0J-270000D01*
G01*
X81035000Y-150755000D01*
G75*
G02*
X80765000Y-151025000I-270000J0D01*
G01*
G37*
M02*
